<?xml version="1.0" encoding="UTF-8" standalone="no"?>
<svg
   xmlns:dc="http://purl.org/dc/elements/1.1/"
   xmlns:cc="http://creativecommons.org/ns#"
   xmlns:rdf="http://www.w3.org/1999/02/22-rdf-syntax-ns#"
   xmlns:svg="http://www.w3.org/2000/svg"
   xmlns="http://www.w3.org/2000/svg"
   xmlns:sodipodi="http://sodipodi.sourceforge.net/DTD/sodipodi-0.dtd"
   xmlns:inkscape="http://www.inkscape.org/namespaces/inkscape"
   sodipodi:docname="logo.svg"
   inkscape:version="1.0.1 (3bc2e813f5, 2020-09-07)"
   id="svg8"
   version="1.1"
   viewBox="0 0 20 20"
   height="20mm"
   width="20mm">
  <defs
     id="defs2" />
  <sodipodi:namedview
     inkscape:window-maximized="1"
     inkscape:window-y="-9"
     inkscape:window-x="-9"
     inkscape:window-height="1001"
     inkscape:window-width="1920"
     showgrid="false"
     inkscape:document-rotation="0"
     inkscape:current-layer="layer2"
     inkscape:document-units="mm"
     inkscape:cy="11.498239"
     inkscape:cx="39.033562"
     inkscape:zoom="32"
     inkscape:pageshadow="2"
     inkscape:pageopacity="0.0"
     borderopacity="1.0"
     bordercolor="#666666"
     pagecolor="#ffffff"
     id="base" />
  <metadata
     id="metadata5">
    <rdf:RDF>
      <cc:Work
         rdf:about="">
        <dc:format>image/svg+xml</dc:format>
        <dc:type
           rdf:resource="http://purl.org/dc/dcmitype/StillImage" />
        <dc:title />
      </cc:Work>
    </rdf:RDF>
  </metadata>
  <g
     inkscape:label="base"
     id="layer2"
     inkscape:groupmode="layer"
     style="display:inline">
    <ellipse
       id="path848"
       style="fill:#241cdd;stroke:#000000;stroke-width:0.0272795"
       cx="9.6338024"
       cy="0.25707337"
       rx="0.0011302073"
       ry="0.00098964048" />
    <ellipse
       id="path850"
       style="fill:#241cdd;stroke:#000000;stroke-width:0.0272795"
       cx="12.107478"
       cy="4.1120706"
       rx="0.0011302073"
       ry="0.00098964048" />
    <ellipse
       id="path852"
       style="fill:#241cdd;stroke:#000000;stroke-width:0.0272795"
       cx="10.929536"
       cy="6.9098444"
       rx="0.0011302073"
       ry="0.00098964048" />
    <ellipse
       id="path854"
       style="fill:#241cdd;stroke:#000000;stroke-width:0.0272795"
       cx="10.04608"
       cy="8.1088896"
       rx="0.0011302073"
       ry="0.00098964048" />
    <path
       style="fill:#000000;fill-opacity:1;stroke:#000000;stroke-width:0.0272795px;stroke-linecap:butt;stroke-linejoin:miter;stroke-opacity:1"
       d="m 9.6632493,0.26996682 c 0.6385177,0.1069589 0.8971687,0.27627332 1.8994307,1.95973078 0.114546,0.3887914 0.411733,0.7357686 0.485899,1.6631927 0.10265,0.3656101 0.04742,1.303045 -0.161966,1.7663366 -0.314621,0.5875532 -0.936869,1.2869855 -1.10432,1.3795466 -0.261666,0.2890476 -0.341927,0.4009837 -0.427003,0.4641476 -0.154871,0.1262391 -0.340936,0.6872672 -0.3828312,1.0443298 l 0.044172,2.5463611 1.325184,-1.4246724 c 0.195202,-0.3629324 0.408155,-0.7147629 0.471177,-1.1603672 0.101716,-0.6700293 0.332345,-1.2196903 0.780386,-1.824354 1.393389,-1.5063288 2.728906,-2.6452076 4.18169,-3.9516951 0.05072,-0.043235 0.104531,-0.090109 0.15676,-0.07052 0.01891,-0.00657 0.0423,0.07552 -0.0198,0.1368255 -0.968062,1.1375482 -1.944835,2.267313 -2.962179,3.3680579 -0.140799,0.1901005 -0.105999,0.3128201 -0.05984,0.3634311 0.05511,0.037763 0.143468,0.047 0.278869,-0.058834 1.053145,-1.0757254 2.056523,-2.1441879 3.162928,-3.2276857 0.134464,-0.094899 0.205479,-0.1741414 0.279129,-0.1487075 0.02577,0.074635 -0.04655,0.1711206 -0.09947,0.254083 -0.975059,1.1431749 -1.992154,2.2200951 -2.989211,3.328597 -0.03144,0.1399642 -0.05193,0.2665072 -0.01472,0.3223243 0.166259,0.1223413 0.269647,0.010712 0.38283,-0.064464 l 3.10682,-3.2877064 c 0.0845,-0.068693 0.168462,-0.1199254 0.250312,-0.1031437 0.04495,0.059385 0.01923,0.1461202 -0.02945,0.2191804 -0.995217,1.2818252 -2.270821,2.5258606 -3.048331,3.4867995 -0.02636,0.071861 -0.04233,0.1814387 0.02986,0.2134823 0.06427,0.065532 0.146146,0.073781 0.235588,0.038678 1.056465,-1.0851578 2.588919,-2.7337929 3.169397,-3.2554742 0.100618,-0.08219 0.243458,-0.2073413 0.313811,-0.1837248 0.04161,0.073366 -0.05764,0.1880117 -0.155525,0.3062081 L 15.449884,8.3796425 14.625326,9.0887565 13.6388,9.6044751 c -0.455583,0.1890972 -0.775738,0.3781934 -1.119044,0.5672909 l -0.633143,0.554397 -1.442978,1.6503 6.154741,5.892086 c 0.219901,0.205423 0.270867,0.447828 0.176692,0.722005 -0.03184,0.158616 -0.135551,0.279475 -0.265038,0.38679 -0.172856,0.105584 -0.37979,0.186301 -0.669952,0.206288 -0.254523,-0.02701 -0.464314,-0.132355 -0.640506,-0.296539 l -4.991525,-5.286117 0.228227,4.860649 c -0.01288,0.147909 8.81e-4,0.215828 -0.184054,0.464147 -0.132701,0.177863 -0.4013194,0.222473 -0.669954,0.264306 C 9.2945003,19.54249 9.0731616,19.480269 8.9417608,19.312879 8.8577783,19.235994 8.8028125,19.093507 8.7577069,18.829393 L 9.0301065,13.97519 4.3330668,19.196842 C 4.178267,19.324771 4.0293699,19.461314 3.8177176,19.506273 3.5605508,19.533097 3.299252,19.516504 3.0226075,19.338665 2.806491,19.126154 2.7402744,18.928227 2.6986736,18.732696 2.6778111,18.587343 2.7136887,18.426323 2.8311921,18.242763 l 5.8455315,-5.840514 -1.3546318,-1.43112 -0.736213,-0.56729 C 5.7268685,9.9890265 4.9234507,9.2605376 4.2299968,8.5601444 3.5014483,7.8921324 2.8480958,7.1394639 2.2569457,6.316768 1.8551228,5.779274 1.5937735,5.2512411 1.4471114,4.7309334 1.2543687,4.2283289 1.2830489,3.8843566 1.2998687,3.5318873 1.3250841,3.3745611 1.4276116,3.3120099 1.5501812,3.2740281 1.692315,3.2707844 1.825233,3.3159591 1.9477362,3.4158508 l 6.1694657,6.5238411 c 0.112886,0.1777121 0.2257723,0.3336521 0.338658,0.4770401 L 9.1920732,11.138738 9.265694,8.4827864 C 9.1894993,8.2174582 9.0917847,7.7874979 8.9417597,7.554494 8.7455483,7.3964024 8.3898163,6.9940892 8.1172019,6.7809156 7.4891783,6.0616501 7.7007921,6.2383931 7.3662646,5.6979054 7.2107062,5.1487953 7.0934777,4.6725245 7.1306764,3.9186763 7.1675907,3.5210524 7.2901149,3.0484662 7.4840586,2.513343 8.0844956,1.428699 8.7443506,0.48599973 9.6632493,0.26996682 Z"
       id="path858"
       sodipodi:nodetypes="cccccccccccccccccccccccccccccccccccccccccccccccccccccccccccccccccccccccccc" />
  </g>
  <g
     inkscape:groupmode="layer"
     id="layer3"
     inkscape:label="git"
     style="display:inline">
    <path
       style="fill:#000000;stroke:#030000;stroke-width:0.00147638;stroke-miterlimit:4;stroke-dasharray:none"
       d=""
       id="path866"
       transform="scale(0.26458333)" />
    <path
       style="fill:#000000;stroke:#030000;stroke-width:0.00147638;stroke-miterlimit:4;stroke-dasharray:none"
       d=""
       id="path868"
       transform="scale(0.26458333)" />
    <g
       id="g934">
      <path
         style="fill:#ff6600;stroke:#000000;stroke-width:0.1;stroke-linecap:butt;stroke-linejoin:miter;stroke-miterlimit:4;stroke-dasharray:none;stroke-opacity:1"
         d="m 9.0714284,2.5395275 0.3955505,-0.3850846 0.1037756,-0.046772 0.115469,-0.00146 0.092083,0.042387 1.8694245,1.8255761 0.03362,0.070158 0.01315,0.05408 0.0015,0.059927 -0.02777,0.076005 -0.03654,0.057004 -1.8080359,1.7627259 -0.043849,0.039464 -0.074543,0.029232 -0.035079,0.00877 -0.092083,-0.00146 -0.052619,-0.016079 -0.042387,-0.021923 -1.8504239,-1.806575 -0.040926,-0.064312 -0.023386,-0.067235 0.00146,-0.074543 0.024847,-0.078928 0.059927,-0.076005 1.2292311,-1.1985369 0.4633368,0.4531053 -0.017539,0.046772 -0.00731,0.048234 0.00146,0.070158 0.019002,0.065773 0.035079,0.064312 0.040926,0.052619 0.051157,0.038002 0.04531,0.019002 v 1.1093775 l -0.051157,0.024847 -0.042387,0.035079 -0.032156,0.038002 -0.032156,0.04531 -0.019002,0.061389 -0.014615,0.055542 0.00585,0.078928 0.020463,0.067235 0.02631,0.05408 0.07162,0.073082 0.077466,0.040925 0.058465,0.017539 0.07162,0.00146 0.092083,-0.016079 0.083313,-0.038002 0.059927,-0.061389 0.043849,-0.077466 0.023387,-0.076005 -0.00292,-0.087698 -0.029233,-0.083313 -0.048234,-0.073082 -0.04531,-0.04531 -0.05408,-0.030694 0.00146,-1.0991459 0.4253339,0.4209495 -0.02046,0.059927 -0.0073,0.051157 0.0058,0.067235 0.02777,0.073082 0.038,0.064312 0.04823,0.043849 0.05554,0.038002 0.0687,0.024847 0.0687,0.013155 0.0687,-0.011692 0.0687,-0.020463 0.057,-0.029232 0.04969,-0.046772 0.038,-0.048234 0.02777,-0.061388 0.01169,-0.061389 0.0044,-0.064312 -0.01315,-0.058465 -0.03069,-0.068696 -0.03362,-0.049696 -0.03508,-0.032156 -0.04969,-0.033618 -0.06431,-0.02631 -0.05846,-0.013155 -0.06285,0.00146 -0.04092,0.00585 -0.03216,0.010231 -0.4589516,-0.4472588 0.019002,-0.049695 0.00146,-0.064312 -0.011692,-0.073082 -0.02631,-0.061388 -0.049695,-0.064312 -0.049696,-0.040926 -0.061388,-0.033617 -0.07162,-0.019002 -0.049696,-0.00731 -0.051157,0.00877 -0.04531,0.013155 -0.477048,-0.4583197 z"
         id="path860" />
      <path
         style="fill:none;stroke:#000000;stroke-width:0.1;stroke-linecap:butt;stroke-linejoin:miter;stroke-miterlimit:4;stroke-dasharray:none;stroke-opacity:1"
         d="M 8.8838242,2.725943 9.0714284,2.5395275"
         id="path862" />
      <path
         style="fill:#000000;stroke:#030000;stroke-width:0.00835165;stroke-miterlimit:4;stroke-dasharray:none"
         d="m 36.246667,19.765972 c -0.164784,-0.02754 -0.407227,-0.16023 -0.53439,-0.292482 -0.133532,-0.138876 -0.218551,-0.32422 -0.252056,-0.549485 -0.02216,-0.14899 -0.01975,-0.183609 0.02376,-0.340663 0.08367,-0.302097 0.273206,-0.529879 0.542501,-0.651984 l 0.142593,-0.06465 v -2.22752 -2.22752 l -0.127058,-0.05187 c -0.233492,-0.09533 -0.328177,-0.180543 -0.472493,-0.425232 -0.148283,-0.251417 -0.170675,-0.507915 -0.06977,-0.799177 l 0.0604,-0.174345 -0.84617,-0.831073 -0.846171,-0.831072 0.19493,-0.191446 0.194929,-0.1914464 0.76235,0.7386654 c 0.419292,0.406266 0.813871,0.783894 0.876841,0.839174 l 0.114492,0.100508 0.160077,-0.04767 c 0.190698,-0.05679 0.323303,-0.05913 0.498057,-0.0088 0.203512,0.05862 0.339727,0.137852 0.475458,0.276566 0.17543,0.179284 0.259863,0.363409 0.276818,0.603662 0.01185,0.167979 0.0073,0.200439 -0.04671,0.335427 l -0.05983,0.149451 0.117453,0.114194 c 0.0646,0.06281 0.496564,0.483575 0.959919,0.935042 l 0.842466,0.820847 0.129806,-0.0455 c 0.106011,-0.03716 0.170315,-0.04406 0.350778,-0.03764 0.202894,0.0072 0.235277,0.01479 0.39585,0.09251 0.218135,0.105587 0.357645,0.241731 0.451701,0.440801 0.108375,0.229376 0.12633,0.334988 0.09355,0.550277 -0.0666,0.43741 -0.362386,0.730605 -0.835823,0.828502 -0.162591,0.03362 -0.184791,0.03351 -0.327668,-0.0016 -0.333979,-0.08204 -0.569081,-0.259186 -0.702597,-0.529404 -0.141222,-0.285811 -0.15151,-0.460718 -0.04544,-0.772573 L 38.79954,15.13874 37.943988,14.287702 C 37.473434,13.81963 37.015817,13.367788 36.927062,13.283608 l -0.161374,-0.153054 v 2.376257 2.376257 l 0.127058,0.06799 c 0.303849,0.162604 0.535854,0.537007 0.535854,0.864747 0,0.23243 -0.08729,0.445891 -0.275206,0.673015 -0.109475,0.132316 -0.29813,0.224139 -0.553434,0.269371 -0.193691,0.03431 -0.194309,0.03433 -0.353297,0.0078 z"
         id="path864"
         transform="scale(0.26458333)" />
      <path
         style="fill:#000000;stroke:#030000;stroke-width:0.1;stroke-miterlimit:4;stroke-dasharray:none"
         id="path874"
         d="m 9.0575552,2.6120533 c -0.00275,0.00304 -0.00484,0.00663 -0.00752,0.00971 -0.00183,0.00216 -0.00328,0.0047 -0.00538,0.00662 -0.00172,0.0017 -0.00365,0.00317 -0.00556,0.00464 -0.00153,0.00138 -0.0031,0.00271 -0.00451,0.00422 -0.00138,0.00148 -5.292e-4,7.329e-4 -0.00122,0.00132 -1.751e-4,1.61e-4 -3.175e-4,3.466e-4 -5.291e-4,4.815e-4 -3.26e-5,2.27e-5 1.8e-6,-7.95e-5 2.6e-6,-1.193e-4 -3.175e-4,2.157e-4 -6.615e-4,4.181e-4 -9.79e-4,6.483e-4 -0.00183,0.00132 -0.0035,0.00278 -0.00518,0.0043 -0.00346,0.00324 -0.0069,0.00651 -0.010271,0.00984 -0.00271,0.00268 -0.00504,0.00571 -0.00754,0.00858 -0.00185,0.00214 -0.00359,0.00437 -0.0054,0.00653 -0.00169,0.00225 -0.00359,0.00433 -0.00546,0.00642 -0.00127,0.00148 -0.00243,0.00309 -0.00377,0.00451 -5.26e-5,5.53e-5 1.598e-4,-2.371e-4 8.81e-5,-2.114e-4 -1.868e-4,6.67e-5 -3.175e-4,2.341e-4 -4.762e-4,3.44e-4 -0.00201,0.00164 -0.00387,0.00345 -0.00586,0.00508 -0.00185,0.00159 -0.0038,0.00306 -0.00562,0.00471 2.62e-5,-4.84e-5 1.222e-4,-1.788e-4 7.83e-5,-1.455e-4 -0.00185,0.0014 -0.00363,0.00293 -0.00538,0.00446 -1.571e-4,1.077e-4 -3.175e-4,2.061e-4 -4.762e-4,3.175e-4 -0.00101,7.938e-4 -0.00198,0.00164 -0.00297,0.00246 -0.00127,0.00108 -0.00156,0.00164 -0.00119,9.79e-4 -0.00209,0.00135 -0.00397,0.00296 -0.00585,0.00456 1.98e-5,-3.58e-5 9.52e-5,-1.27e-4 5.95e-5,-1.075e-4 -0.00206,0.00114 -0.0039,0.00306 -0.00554,0.00471 -0.00138,0.00119 -0.00272,0.00238 -0.00418,0.00346 -7.938e-4,6.085e-4 -0.00156,0.00111 -0.00238,0.00172 -0.011703,0.00876 6.879e-4,0.025307 0.012388,0.016547 v 0 c 7.938e-4,-7.144e-4 0.00177,-0.00114 0.00257,-0.00185 0.00222,-0.00172 0.00439,-0.00348 0.00641,-0.00543 0.00132,-0.00138 0.00259,-0.00228 0.0042,-0.00341 0.00135,-0.00116 0.0027,-0.00235 0.00426,-0.00332 0.00214,-0.00161 0.00414,-0.00342 0.00628,-0.00507 0.00193,-0.00169 0.00393,-0.00329 0.00595,-0.00489 0.0014,-0.00122 0.00303,-0.00249 0.00451,-0.00373 0.00188,-0.00156 0.00367,-0.0032 0.00551,-0.0048 0.00259,-0.00209 0.00485,-0.00447 0.00682,-0.00715 0.00209,-0.00233 0.00419,-0.00467 0.00609,-0.00716 0.00161,-0.00204 0.00326,-0.00402 0.00495,-0.00599 0.00217,-0.00249 0.00419,-0.00511 0.00649,-0.00747 0.00316,-0.00314 0.0064,-0.0062 0.00965,-0.00925 0.00235,-0.00217 0.005,-0.00387 0.00739,-0.00599 0.00124,-0.0013 0.00238,-0.00265 0.00375,-0.00379 0.00265,-0.00206 0.00527,-0.00411 0.00763,-0.00648 0.00238,-0.00249 0.00457,-0.00516 0.00659,-0.00796 0.00257,-0.00317 0.00482,-0.00655 0.00747,-0.00964 0.00936,-0.011229 -0.00652,-0.024462 -0.01588,-0.013233 z" />
      <path
         style="fill:#000000;stroke:#030000;stroke-width:0.1;stroke-miterlimit:4;stroke-dasharray:none"
         id="path876"
         d="m 8.9887617,2.7711638 c 0.00143,0.00262 0.00309,0.00506 0.00477,0.00752 0.00167,0.00259 0.00366,0.00491 0.0056,0.00729 0.00196,0.00222 0.00401,0.00436 0.0062,0.00636 0.00135,0.00161 0.00298,0.00299 0.00441,0.00454 0.00114,0.00119 0.0022,0.00249 0.00337,0.00367 0.00164,0.00164 0.00116,7.938e-4 0.00161,0.00161 0.00196,0.00206 0.00427,0.00373 0.0062,0.00582 0.00204,0.00222 0.00409,0.0044 0.00601,0.00671 0.00225,0.00274 0.00459,0.00539 0.00716,0.00783 0.00246,0.00198 0.00465,0.00427 0.00705,0.00633 0.00201,0.00172 0.00385,0.00358 0.00574,0.00543 0.00196,0.00183 0.00403,0.00349 0.00603,0.00527 0.00196,0.00151 0.0036,0.00337 0.0054,0.00505 0.00193,0.00206 0.00399,0.00396 0.00612,0.0058 0.00212,0.00185 0.00401,0.00387 0.00613,0.0057 0.0018,0.00201 0.00404,0.00354 0.00591,0.00548 0.00214,0.00217 0.00414,0.00446 0.0062,0.0067 0.00228,0.00235 0.00463,0.00464 0.00697,0.00694 0.00204,0.00177 0.00407,0.00357 0.00612,0.00534 0.00146,0.00153 0.00306,0.00294 0.0046,0.00441 0.00278,0.0023 0.00538,0.00479 0.00788,0.00738 0.00132,0.0013 0.00249,0.00275 0.00374,0.00411 6.615e-4,7.144e-4 0.00156,0.00148 0.00204,0.00238 0.00146,0.00204 0.00298,0.00403 0.00467,0.00589 0.00108,0.00132 0.0022,0.00265 0.00325,0.00402 0.00124,0.0014 0.00251,0.00277 0.00386,0.00406 0.00111,0.00108 6.879e-4,5.292e-4 0.00111,0.00108 0.00175,0.00175 0.00365,0.0033 0.00554,0.00487 0.00108,0.00119 0.0023,0.00225 0.00343,0.00342 0.00188,0.00191 0.00414,0.00342 0.00592,0.00542 0.00214,0.00238 0.00442,0.00463 0.00677,0.00681 0.00222,0.00209 0.00448,0.00414 0.00677,0.00615 0.00246,0.00206 0.00484,0.0042 0.00727,0.00629 0.0013,0.00135 0.00268,0.00274 0.00402,0.00414 0.0014,0.00156 0.00282,0.00309 0.00418,0.00469 0.00159,0.00209 0.00332,0.00411 0.00515,0.006 0.00198,0.00238 0.00453,0.00424 0.00706,0.006 0.00204,0.00153 0.00407,0.00314 0.00599,0.00483 0.00257,0.00206 0.00502,0.00421 0.00741,0.00646 0.00243,0.00235 0.00474,0.00485 0.00711,0.00727 0.00167,0.00201 0.00359,0.00377 0.00537,0.00566 0.00191,0.0022 0.00381,0.00436 0.00556,0.00668 0.00161,0.00214 0.00347,0.00411 0.00503,0.00632 0.00143,0.00222 0.00311,0.00426 0.00483,0.00627 0.00191,0.00222 0.00416,0.00417 0.00611,0.00636 0.00198,0.00196 0.00412,0.00373 0.00628,0.00548 0.0029,0.00235 0.00544,0.00509 0.00809,0.0077 0.00241,0.00201 0.00459,0.00425 0.00692,0.00634 0.00225,0.00241 0.00486,0.00445 0.00734,0.00662 0.00302,0.00265 0.00616,0.00514 0.00924,0.00771 0.00262,0.00233 0.00528,0.0046 0.00799,0.00682 0.00225,0.00164 0.00437,0.00339 0.00672,0.00489 0.00204,0.00122 0.00405,0.00243 0.00601,0.00374 0.00243,0.00151 0.00484,0.00306 0.00719,0.0047 0.00262,0.00177 0.00525,0.00358 0.00767,0.00563 0.00233,0.00183 0.00477,0.00352 0.00691,0.00555 0.0019,0.00188 0.00347,0.00405 0.00499,0.00622 0.00148,0.00257 0.00385,0.00452 0.00546,0.00697 0.00161,0.00212 0.00309,0.00428 0.00486,0.00629 0.00241,0.00246 0.00473,0.00502 0.00702,0.0076 0.0022,0.00228 0.00451,0.00444 0.00665,0.00677 0.00172,0.00172 0.00346,0.00346 0.00499,0.00536 0.0019,0.00241 0.00372,0.00483 0.00588,0.00703 0.00177,0.00172 0.00343,0.00358 0.00506,0.00545 0.00214,0.00243 0.00436,0.00479 0.00666,0.00708 0.00212,0.00206 0.0046,0.00369 0.00692,0.00552 0.00233,0.00183 0.00458,0.00376 0.0068,0.00571 0.0022,0.00183 0.0043,0.00375 0.00631,0.00578 0.00151,0.00167 0.00295,0.00337 0.00448,0.00501 0.00103,9.525e-4 0.0055,0.00468 0.00384,0.0033 2.646e-4,0.00114 0.00235,0.00198 0.00262,0.003 4.71e-5,1.945e-4 -2.911e-4,-2.645e-4 -4.234e-4,-4.233e-4 6.086e-4,0.00135 0.00156,0.00249 0.00222,0.0038 2.81e-5,5.48e-5 -8.12e-5,-9.23e-5 -1.219e-4,-1.384e-4 0.00658,0.013052 0.025037,0.00375 0.018457,-0.0093 v 0 c -0.00114,-0.00209 -0.00119,-0.00198 -0.00209,-0.00363 -0.00135,-0.00246 -0.00303,-0.00455 -0.00487,-0.00663 -0.00146,-0.00159 -0.00314,-0.00331 -0.00493,-0.00457 -9.44e-5,-6.59e-5 1.368e-4,1.852e-4 2.053e-4,2.646e-4 -5.82e-4,-4.763e-4 -3.78e-5,-8.5e-6 -0.00106,-0.00119 -0.00119,-0.0014 -0.00251,-0.00266 -0.00368,-0.00407 -0.00235,-0.00235 -0.0048,-0.00461 -0.00736,-0.00675 -0.00251,-0.0022 -0.00504,-0.00434 -0.00764,-0.00641 -0.00169,-0.00132 -0.00349,-0.00257 -0.00514,-0.00395 -0.00196,-0.00193 -0.00388,-0.00389 -0.00565,-0.00601 -0.0019,-0.00217 -0.00383,-0.00432 -0.00589,-0.00635 -2.646e-4,-2.646e-4 -5.292e-4,-5.821e-4 -8.203e-4,-8.202e-4 -4.57e-5,-3.75e-5 5.83e-5,2.225e-4 2.07e-5,1.768e-4 -0.00138,-0.00167 -0.00246,-0.00355 -0.00395,-0.00513 -0.00177,-0.00209 -0.00364,-0.00415 -0.00561,-0.00607 -0.00206,-0.00225 -0.00425,-0.00438 -0.00643,-0.00653 -0.0023,-0.00259 -0.0046,-0.00516 -0.00703,-0.00761 -0.00135,-0.00148 -0.00233,-0.00317 -0.0036,-0.00473 -0.00172,-0.0023 -0.00369,-0.00437 -0.0053,-0.00675 -0.00235,-0.00332 -0.00481,-0.00661 -0.00778,-0.00941 -0.00246,-0.00228 -0.00512,-0.00436 -0.00781,-0.00635 -0.00289,-0.00235 -0.00588,-0.00459 -0.00899,-0.00664 -0.00249,-0.00175 -0.00504,-0.00339 -0.00762,-0.005 -0.00206,-0.00138 -0.00418,-0.00268 -0.00632,-0.00394 -0.00164,-0.00106 -0.00312,-0.00235 -0.00475,-0.00347 -0.00268,-0.0022 -0.00529,-0.00444 -0.00788,-0.00673 -0.00298,-0.00246 -0.006,-0.00488 -0.00891,-0.00742 -0.00246,-0.00212 -0.00496,-0.00415 -0.0072,-0.0065 -0.00209,-0.00177 -0.00391,-0.00389 -0.0061,-0.00557 -0.00312,-0.00305 -0.0061,-0.00626 -0.00953,-0.00899 -0.00143,-0.00116 -0.00287,-0.00235 -0.00425,-0.0036 -0.0018,-0.00188 -0.00367,-0.00372 -0.00546,-0.00563 -0.00138,-0.00161 -0.00274,-0.00322 -0.00387,-0.00505 -0.00169,-0.00228 -0.00351,-0.00445 -0.00528,-0.00665 -0.00225,-0.00292 -0.00465,-0.00569 -0.00707,-0.00845 -0.00188,-0.00193 -0.00382,-0.0038 -0.00557,-0.00587 -0.00259,-0.00259 -0.00506,-0.00533 -0.00772,-0.00786 -0.00262,-0.00246 -0.0053,-0.00483 -0.0081,-0.00707 -0.00254,-0.00214 -0.00509,-0.00427 -0.00778,-0.0062 -0.00148,-9.525e-4 -0.00282,-0.00198 -0.00391,-0.00335 -0.00159,-0.00161 -0.00298,-0.00341 -0.00439,-0.00518 -0.00161,-0.00183 -0.00321,-0.00364 -0.00486,-0.00543 -0.00183,-0.00191 -0.0036,-0.00365 -0.00547,-0.0055 -0.00238,-0.00201 -0.00466,-0.00415 -0.00708,-0.00613 -0.00214,-0.00188 -0.00425,-0.0038 -0.00632,-0.00575 -0.00204,-0.00188 -0.00403,-0.00382 -0.00586,-0.00592 -0.00188,-0.00193 -0.00387,-0.00375 -0.00595,-0.00546 -0.00172,-0.0018 -0.00355,-0.00351 -0.00537,-0.00521 -0.00122,-8.731e-4 -0.00225,-0.00196 -0.0034,-0.00288 -0.00122,-0.00124 -0.00249,-0.00249 -0.00372,-0.00369 -0.00148,-0.00193 -0.00308,-0.00379 -0.00465,-0.00565 -7.673e-4,-2.646e-4 -0.00212,-0.00308 -0.00283,-0.00366 -0.00233,-0.00314 -0.0051,-0.00592 -0.00773,-0.00881 -0.00271,-0.0028 -0.0055,-0.00555 -0.00853,-0.00802 -0.00177,-0.00167 -0.00359,-0.0033 -0.0053,-0.00504 -0.00172,-0.00148 -0.00341,-0.003 -0.00516,-0.00445 -0.00212,-0.00206 -0.00424,-0.00413 -0.0063,-0.00625 -0.0023,-0.00246 -0.00448,-0.00501 -0.00687,-0.00738 -0.00228,-0.0022 -0.00475,-0.0042 -0.00697,-0.00646 -0.00214,-0.00175 -0.00389,-0.00393 -0.00607,-0.00565 -0.00198,-0.00169 -0.00385,-0.0035 -0.00566,-0.00539 -0.00201,-0.00175 -0.00367,-0.00392 -0.00587,-0.00547 -0.00172,-0.00146 -0.00344,-0.00293 -0.00513,-0.00445 -0.00225,-0.00217 -0.00445,-0.00439 -0.00683,-0.00642 -0.0022,-0.00175 -0.004,-0.00394 -0.00625,-0.00563 -0.00201,-0.00175 -0.00358,-0.00396 -0.00535,-0.00592 -0.00217,-0.00262 -0.00448,-0.0051 -0.00679,-0.00759 -0.0018,-0.00193 -0.0037,-0.00375 -0.00579,-0.00536 -0.00183,-0.00198 -0.00377,-0.00388 -0.00555,-0.00592 -0.0018,-0.00185 -0.00367,-0.00366 -0.00544,-0.00555 -0.00146,-0.0013 -0.00278,-0.00272 -0.0041,-0.00415 -0.00159,-0.00193 -0.00324,-0.00379 -0.00457,-0.00591 -0.00164,-0.00238 -0.00318,-0.00477 -0.0046,-0.00728 -0.00811,-0.01216 -0.025307,-6.88e-4 -0.017198,0.011467 z" />
      <path
         style="fill:#000000;stroke:#030000;stroke-width:0.1;stroke-miterlimit:4;stroke-dasharray:none"
         id="path878"
         d="m 9.3722453,3.2185845 c -0.00267,0.00405 -0.00455,0.00844 -0.0059,0.013073 -0.00111,0.00414 -0.00143,0.0084 -0.00156,0.012655 -1.159e-4,0.00324 -4.87e-5,0.00645 3.704e-4,0.00966 3.704e-4,0.0022 5.292e-4,0.00439 6.085e-4,0.00661 6.94e-5,0.00293 6.88e-5,0.00585 6.96e-5,0.00878 -1.3e-6,0.00262 -4.5e-6,0.00526 -6.1e-6,0.0079 1.368e-4,0.00268 -3.175e-4,0.00532 -5.82e-4,0.00797 -3.44e-4,0.00359 -3.969e-4,0.0072 -4.498e-4,0.010811 -2.91e-5,0.00351 -2.25e-5,0.00702 -2.01e-5,0.010528 -9.58e-5,0.00321 5.027e-4,0.00639 7.937e-4,0.00958 9.74e-5,0.00331 0.00116,0.00647 0.00183,0.00969 3.44e-4,0.00175 4.234e-4,0.00354 4.763e-4,0.00532 -3.78e-5,0.00299 6.35e-4,0.00591 0.0014,0.00878 4.233e-4,0.00217 0.00106,0.00426 0.00135,0.00644 3.704e-4,0.0029 0.00146,0.00563 0.00212,0.00846 5.556e-4,0.0022 9.525e-4,0.00442 0.0014,0.00665 4.498e-4,0.00259 0.00122,0.00512 0.00167,0.00772 2.91e-4,0.00183 3.175e-4,0.00369 3.704e-4,0.00554 -4.1e-5,0.00351 7.673e-4,0.00695 0.0014,0.010374 5.821e-4,0.00447 0.00212,0.0087 0.00391,0.012803 0.00204,0.00414 0.00429,0.00812 0.00681,0.011986 0.00283,0.00407 0.00543,0.00828 0.00831,0.012322 0.00217,0.00327 0.00458,0.00637 0.00688,0.00955 0.00127,0.00209 0.00275,0.00403 0.0039,0.00619 0.00196,0.0037 0.00448,0.00704 0.00687,0.01047 0.00148,0.00284 0.00395,0.00504 0.00567,0.0077 0.00159,0.0023 0.00339,0.00445 0.00542,0.00637 1.323e-4,1.799e-4 0.00146,0.00225 0.00204,0.00316 0.00132,0.00212 0.00307,0.00398 0.00424,0.0062 0.00153,0.00267 0.00313,0.00531 0.00482,0.00789 0.00164,0.00259 0.00341,0.00513 0.00521,0.00761 0.00225,0.00313 0.00472,0.00609 0.00751,0.00876 0.00222,0.00217 0.00463,0.00408 0.007,0.00606 0.00343,0.00265 0.00678,0.00539 0.010253,0.00799 0.00283,0.00225 0.00592,0.00415 0.00893,0.00614 0.00276,0.00175 0.00538,0.00364 0.0082,0.00528 0.00254,0.0014 0.00518,0.00266 0.00764,0.0042 0.00254,0.00143 0.00505,0.00289 0.00758,0.00434 0.00212,0.00138 0.00428,0.00268 0.00648,0.00392 0.00271,0.0013 0.00513,0.00302 0.00781,0.00439 0.00318,0.00164 0.00622,0.00349 0.00945,0.00502 0.00292,0.00148 0.00581,0.00301 0.00877,0.00439 0.00336,0.00127 0.00663,0.00269 0.00985,0.00425 0.00271,0.00132 0.00545,0.00254 0.00822,0.00372 0.00241,0.00101 0.00485,0.00188 0.0073,0.00276 0.00167,5.556e-4 7.938e-4,2.91e-4 0.00265,8.202e-4 0.01407,0.00396 0.019666,-0.015944 0.0056,-0.019899 v 0 c -8.466e-4,-2.215e-4 -3.704e-4,-8.63e-5 -0.0014,-4.234e-4 -0.00209,-7.143e-4 -0.00414,-0.00146 -0.00616,-0.00233 -0.00246,-0.00101 -0.00485,-0.00214 -0.00724,-0.00328 -0.00332,-0.00159 -0.00666,-0.00313 -0.010134,-0.00438 -0.00296,-0.00135 -0.00578,-0.00294 -0.0087,-0.00436 -0.00306,-0.00138 -0.00583,-0.00332 -0.00887,-0.00474 -0.00241,-0.00119 -0.00452,-0.00287 -0.00699,-0.00395 -0.00217,-0.00122 -0.00425,-0.00251 -0.00634,-0.00384 -0.00235,-0.00135 -0.0047,-0.00271 -0.00707,-0.00404 -0.00262,-0.00159 -0.00533,-0.00301 -0.00804,-0.00443 -0.00249,-0.00146 -0.00476,-0.00317 -0.00721,-0.00467 -0.00268,-0.00177 -0.00543,-0.00345 -0.00795,-0.00545 -0.00317,-0.00238 -0.00623,-0.00488 -0.00937,-0.00729 -0.00209,-0.00175 -0.00421,-0.00338 -0.00614,-0.0053 -0.00193,-0.00167 -0.00332,-0.00383 -0.00489,-0.0058 -0.00161,-0.00222 -0.00319,-0.00447 -0.00465,-0.0068 -0.00146,-0.00225 -0.00285,-0.00452 -0.00418,-0.00684 -0.00143,-0.00243 -0.00305,-0.00471 -0.00471,-0.00698 -0.00161,-0.00254 -0.00322,-0.00512 -0.0054,-0.00721 -9.525e-4,-8.202e-4 -0.0019,-0.00212 -0.00271,-0.0033 -0.00183,-0.00249 -0.00393,-0.00477 -0.0055,-0.00746 -0.00198,-0.00284 -0.0041,-0.0056 -0.00574,-0.00865 -0.00161,-0.00286 -0.00344,-0.00556 -0.00524,-0.0083 -0.00228,-0.00315 -0.00466,-0.00623 -0.00682,-0.00947 -0.00272,-0.00379 -0.00513,-0.00779 -0.00782,-0.011605 -0.0019,-0.00291 -0.00362,-0.00589 -0.00519,-0.00899 -0.00119,-0.00269 -0.00222,-0.00542 -0.00254,-0.00837 -4.233e-4,-0.00228 -0.00106,-0.00455 -0.00106,-0.00686 -5.27e-5,-0.00296 -1.685e-4,-0.00592 -6.879e-4,-0.00883 -5.027e-4,-0.00277 -0.00124,-0.00548 -0.00177,-0.00824 -5.292e-4,-0.00241 -9.525e-4,-0.00486 -0.00153,-0.00726 -5.556e-4,-0.00228 -0.00135,-0.00451 -0.00177,-0.00682 -4.498e-4,-0.00287 -0.00116,-0.00569 -0.00177,-0.00852 -3.704e-4,-0.00138 -8.202e-4,-0.00269 -7.409e-4,-0.00414 -9.02e-5,-0.00299 -2.91e-4,-0.00599 -8.995e-4,-0.00893 -5.292e-4,-0.00246 -0.00138,-0.00488 -0.00148,-0.00741 -2.44e-4,-0.00257 -7.144e-4,-0.0051 -7.144e-4,-0.00767 -2.1e-6,-0.00342 -9e-6,-0.00685 1.85e-5,-0.010274 3.44e-5,-0.00303 8.1e-5,-0.00607 3.44e-4,-0.0091 3.175e-4,-0.0033 8.202e-4,-0.00659 6.615e-4,-0.00991 1.5e-6,-0.00265 4.7e-6,-0.00528 6e-6,-0.00791 -1e-6,-0.00316 -1e-6,-0.00631 -8.12e-5,-0.00947 -1.032e-4,-0.00292 -2.91e-4,-0.00584 -7.937e-4,-0.00873 -2.911e-4,-0.00209 -2.371e-4,-0.00417 -1.945e-4,-0.00628 6.48e-5,-0.00257 1.744e-4,-0.00514 7.937e-4,-0.00765 6.615e-4,-0.00257 0.00177,-0.00492 0.00319,-0.00717 0.00811,-0.01216 -0.00909,-0.023627 -0.017198,-0.011467 z" />
      <path
         style="fill:#000000;stroke:#030000;stroke-width:0.1;stroke-miterlimit:4;stroke-dasharray:none"
         id="path880"
         d="m 9.5560056,3.6101946 c 3e-7,0.00513 0,0.010266 0,0.015396 0,0.00486 0,0.00972 0,0.014584 3.07e-5,0.00467 -1.013e-4,0.00935 1.413e-4,0.014012 7.937e-4,0.00492 0.00138,0.00983 0.00164,0.014806 9.55e-5,0.00673 7.938e-4,0.01342 0.00159,0.020095 3.704e-4,0.00432 8.467e-4,0.00863 0.00124,0.012951 3.704e-4,0.00421 4.497e-4,0.00843 5.291e-4,0.012652 6.06e-5,0.00524 5.292e-4,0.010475 7.938e-4,0.015714 2.13e-4,0.00432 2.397e-4,0.00864 2.627e-4,0.012967 -1.328e-4,0.00345 2.432e-4,0.00693 -9.21e-5,0.010374 -4.498e-4,0.00362 -0.00111,0.0072 -0.00151,0.010832 -3.175e-4,0.00345 -8.731e-4,0.00687 -0.00119,0.010316 -2.646e-4,0.00371 -2.911e-4,0.00744 -3.175e-4,0.011166 -3.44e-4,0.00356 -6.35e-4,0.00712 -8.202e-4,0.010684 -1.786e-4,0.0033 -1.921e-4,0.00662 -2.024e-4,0.00992 -5.9e-6,0.0042 -1.4e-6,0.00841 1.3e-6,0.012607 2.4e-6,0.00323 2.6e-6,0.00645 3.2e-6,0.00968 -1.358e-4,0.00456 1.293e-4,0.00909 5.027e-4,0.013631 2.91e-4,0.00356 4.233e-4,0.00714 5.027e-4,0.01071 2.378e-4,0.0033 6.879e-4,0.00658 8.996e-4,0.00988 1.532e-4,0.00257 1.521e-4,0.00511 1.608e-4,0.00767 5.1e-6,0.00339 0,0.00679 -2.4e-6,0.010186 -2.1e-6,0.0039 -2.6e-6,0.0078 -2.9e-6,0.011695 -2e-7,0.00299 -2e-7,0.00599 -2e-7,0.00898 1.828e-4,0.00214 -2.53e-4,0.00417 -5.292e-4,0.00627 -6.35e-4,0.00191 -7.937e-4,0.00394 -0.00124,0.0059 -3.44e-4,0.00204 -0.00119,0.00392 -0.00185,0.00586 -0.00101,0.00294 -0.00135,0.00603 -0.00148,0.00911 -7.88e-5,0.00285 -5.42e-5,0.0057 -4.89e-5,0.00856 -6.3e-5,0.00342 1.16e-5,0.00681 3.704e-4,0.01021 5.291e-4,0.00312 0.00122,0.00621 0.00151,0.00937 1.99e-4,0.00281 7.408e-4,0.00558 0.00101,0.00838 4.763e-4,0.00243 9.261e-4,0.00484 0.00111,0.00731 1.45e-4,0.00217 1.516e-4,0.00433 1.595e-4,0.0065 2.7e-6,0.00259 -3.2e-6,0.00518 -5.5e-6,0.00776 -2.4e-6,0.00324 -3e-6,0.00647 -3.2e-6,0.00971 -3.44e-4,0.00291 -6.35e-4,0.00582 -8.202e-4,0.00874 1.61e-5,0.00251 -2.461e-4,0.00494 -5.821e-4,0.00741 -1.466e-4,0.00225 -7.144e-4,0.00444 -0.00111,0.00667 -8.202e-4,0.00249 -0.00114,0.0051 -0.0014,0.0077 -2.093e-4,0.00279 -2.331e-4,0.00559 -2.445e-4,0.00838 -1.6e-6,0.00289 4.5e-6,0.00578 6.9e-6,0.00867 2.182e-4,0.00355 6.614e-4,0.00708 8.731e-4,0.010628 1.468e-4,0.00259 1.598e-4,0.0052 1.712e-4,0.00781 6.1e-6,0.00292 10e-7,0.00583 -1.1e-6,0.00875 -2.4e-6,0.00305 -2.9e-6,0.0061 -3.2e-6,0.00914 -1.64e-4,0.00344 3.175e-4,0.00685 6.879e-4,0.010263 2.911e-4,0.00274 2.646e-4,0.00549 5.028e-4,0.00823 4.233e-4,0.00335 6.35e-4,0.00671 7.672e-4,0.010083 1.08e-4,0.00301 1.054e-4,0.00601 1.091e-4,0.00902 8e-7,0.00314 -3.2e-6,0.00627 -5.3e-6,0.00941 -1.6e-6,0.00352 -1.9e-6,0.00705 -2.2e-6,0.010567 0,0.00321 0,0.00643 0,0.00964 0,0.00315 0,0.0063 0,0.00945 0,0.00225 0,0.00448 0,0.00672 0,0.00222 0,0.00443 0,0.00665 -5.34e-5,0.00343 1.268e-4,0.00688 -1.066e-4,0.010308 -4.762e-4,0.00289 -2.91e-4,0.00591 -8.202e-4,0.00878 -5.027e-4,0.00262 -6.614e-4,0.00526 -0.00114,0.00787 -6.35e-4,0.00373 -8.467e-4,0.00751 -9.525e-4,0.011285 -8.7e-5,0.00533 -7.35e-5,0.010655 -7.22e-5,0.015981 -1.352e-4,0.00356 5.05e-5,0.00708 6.085e-4,0.010602 1.889e-4,0.00204 6.615e-4,0.00401 0.00106,0.006 0.00299,0.014309 0.02322,0.010083 0.020235,-0.00422 v 0 c -3.44e-4,-0.00164 -7.409e-4,-0.00327 -8.731e-4,-0.00496 -7.94e-5,-5.027e-4 -3.175e-4,-0.00135 -3.44e-4,-0.0019 -7.62e-5,-0.00183 6.14e-5,-0.00368 -4.8e-6,-0.00551 -1.3e-6,-0.00511 -1.27e-5,-0.010231 6.25e-5,-0.015346 8.09e-5,-0.00274 2.053e-4,-0.00549 6.35e-4,-0.0082 5.291e-4,-0.00288 7.673e-4,-0.00578 0.00127,-0.00866 4.498e-4,-0.00349 6.35e-4,-0.00701 0.00101,-0.010512 1.958e-4,-0.00383 1.413e-4,-0.00766 1.405e-4,-0.011491 0,-0.00222 0,-0.00443 0,-0.00665 0,-0.00225 0,-0.00448 0,-0.00672 0,-0.00315 0,-0.0063 0,-0.00945 0,-0.00321 0,-0.00642 0,-0.00964 3e-7,-0.00352 5e-7,-0.00704 2.1e-6,-0.010557 2.1e-6,-0.00315 6.1e-6,-0.0063 5.3e-6,-0.00945 -4.2e-6,-0.00329 -4.2e-6,-0.00657 -1.273e-4,-0.00986 -1.582e-4,-0.00374 -3.968e-4,-0.00749 -8.466e-4,-0.011203 -3.705e-4,-0.00281 -6.8e-5,-0.0057 -5.292e-4,-0.00851 -2.91e-4,-0.00266 -7.408e-4,-0.0053 -5.556e-4,-0.00799 2e-7,-0.00304 8e-7,-0.00609 3.1e-6,-0.00913 2.2e-6,-0.00295 7.5e-6,-0.00591 1.1e-6,-0.00886 -1.38e-5,-0.00301 -3.54e-5,-0.00601 -2.122e-4,-0.00901 -1.984e-4,-0.00312 -4.762e-4,-0.00624 -8.202e-4,-0.00935 -2.4e-6,-0.00286 -8.2e-6,-0.00572 -7.1e-6,-0.00857 8.4e-6,-0.00222 2.03e-5,-0.00444 1.653e-4,-0.00665 1.572e-4,-0.00206 6.35e-4,-0.00401 0.00116,-0.006 4.233e-4,-0.00246 0.00103,-0.00488 0.00122,-0.00737 3.968e-4,-0.00296 7.143e-4,-0.00592 7.408e-4,-0.00891 2.061e-4,-0.00335 6.879e-4,-0.00668 8.731e-4,-0.010038 3e-7,-0.00323 8e-7,-0.00646 3.2e-6,-0.00969 2.4e-6,-0.00262 8.5e-6,-0.00524 5.3e-6,-0.00786 -1.03e-5,-0.0027 -2.94e-5,-0.0054 -2.27e-4,-0.00809 -2.127e-4,-0.00257 -4.498e-4,-0.00513 -0.00114,-0.00761 -2.646e-4,-0.00283 -7.938e-4,-0.00562 -0.00101,-0.00845 -3.175e-4,-0.00319 -8.202e-4,-0.00636 -0.00153,-0.00949 -2.911e-4,-0.00269 -2.911e-4,-0.00538 -2.503e-4,-0.0081 -4.8e-6,-0.00254 -2.38e-5,-0.00507 2.83e-5,-0.0076 4.29e-5,-0.00108 6.43e-5,-0.0022 3.704e-4,-0.00326 9.525e-4,-0.00279 0.00209,-0.00553 0.00259,-0.00846 4.763e-4,-0.00246 8.996e-4,-0.00492 0.00148,-0.00736 3.969e-4,-0.00298 8.996e-4,-0.00596 7.144e-4,-0.00899 0,-0.00299 0,-0.00598 2e-7,-0.00898 3e-7,-0.00389 8e-7,-0.00779 2.9e-6,-0.011684 2.4e-6,-0.00342 7.5e-6,-0.00685 2.2e-6,-0.010271 -1.04e-5,-0.00302 -1.78e-5,-0.00603 -2.109e-4,-0.00904 -2.096e-4,-0.00296 -5.027e-4,-0.00591 -8.731e-4,-0.00885 -8.07e-5,-0.004 -2.363e-4,-0.00801 -5.557e-4,-0.011999 -3.175e-4,-0.00397 -5.82e-4,-0.00794 -4.233e-4,-0.011933 -5e-7,-0.00323 -8e-7,-0.00646 -3.2e-6,-0.00969 -2.6e-6,-0.00418 -7.1e-6,-0.00836 -1.3e-6,-0.012531 9e-6,-0.00296 1.51e-5,-0.00591 1.717e-4,-0.00886 2.117e-4,-0.00391 6.086e-4,-0.0078 8.731e-4,-0.011703 1.62e-5,-0.00319 3.23e-5,-0.00638 2.488e-4,-0.00956 2.595e-4,-0.00328 8.466e-4,-0.00651 0.00114,-0.00978 4.233e-4,-0.00389 0.00124,-0.00771 0.00159,-0.011605 2.436e-4,-0.00398 1.383e-4,-0.00797 1.447e-4,-0.011965 -2.51e-5,-0.00463 -5.8e-5,-0.00927 -2.911e-4,-0.013898 -2.532e-4,-0.005 -6.879e-4,-0.01 -7.672e-4,-0.015002 -7.7e-5,-0.00476 -2.014e-4,-0.00952 -6.086e-4,-0.014261 -4.233e-4,-0.00449 -8.996e-4,-0.00897 -0.0013,-0.013454 -7.409e-4,-0.00623 -0.0014,-0.012462 -0.00148,-0.01874 -2.646e-4,-0.005 -6.615e-4,-0.01 -0.00164,-0.014922 -2.911e-4,-0.00426 4.2e-6,-0.00854 -1.061e-4,-0.012806 0,-0.00486 0,-0.00972 0,-0.014584 0,-0.00513 2e-7,-0.010266 0,-0.015396 0,-0.014616 -0.020672,-0.014616 -0.020672,0 z" />
      <path
         style="fill:#000000;stroke:#030000;stroke-width:0.1;stroke-miterlimit:4;stroke-dasharray:none"
         id="path882"
         d="m 9.5586287,4.3009079 c 0.00122,0.00354 0.00175,0.00722 0.00241,0.010885 5.027e-4,0.00335 0.00114,0.00669 0.00164,0.010036 5.027e-4,0.00214 2.911e-4,0.00415 9.08e-5,0.00629 -1.974e-4,0.00342 -5.292e-4,0.00684 -0.00114,0.010213 -0.00103,0.00423 -0.00159,0.00855 -0.00235,0.01283 -7.144e-4,0.00419 -0.00143,0.00837 -0.00185,0.012605 -4.498e-4,0.00352 -1.701e-4,0.00709 -5.027e-4,0.010618 -4.498e-4,0.00457 -6.615e-4,0.00916 -8.202e-4,0.013748 -1.141e-4,0.00384 -1.18e-4,0.00768 -1.225e-4,0.011528 -1.1e-6,0.00335 2.6e-6,0.0067 4.7e-6,0.010051 -5e-7,0.00329 -5.87e-5,0.00658 1.588e-4,0.00987 4.233e-4,0.00399 0.00106,0.00795 0.00161,0.011927 6.086e-4,0.00584 0.00209,0.011528 0.00326,0.017267 7.144e-4,0.00321 0.00103,0.00647 0.00114,0.00974 -4.47e-5,0.00288 -1.148e-4,0.00586 -6.879e-4,0.0087 -0.00101,0.00257 -0.0018,0.00522 -0.00246,0.0079 -9.79e-4,0.00401 -0.00212,0.00798 -0.00306,0.012004 -0.00135,0.00552 -0.00148,0.011218 -0.00204,0.016846 -5.821e-4,0.00419 -6.615e-4,0.00842 -0.00103,0.012623 -4.762e-4,0.00437 -7.408e-4,0.00874 -9.26e-4,0.013131 -1.384e-4,0.00432 -1.209e-4,0.00865 -1.236e-4,0.012975 5e-7,0.00472 4.5e-6,0.00945 6.6e-6,0.014171 2.1e-6,0.00428 2.1e-6,0.00856 2.1e-6,0.01284 3e-7,0.00475 3e-7,0.0095 3e-7,0.014253 -1.085e-4,0.00566 7.9e-6,0.011295 6.615e-4,0.016915 6.085e-4,0.0045 0.00119,0.00901 0.00201,0.013481 8.202e-4,0.00405 0.00114,0.00818 0.00172,0.012274 4.233e-4,0.00341 0.00116,0.00677 0.00153,0.010194 2.5e-4,0.00254 2.611e-4,0.00511 2.91e-4,0.00767 -3.439e-4,0.00291 -6.879e-4,0.00582 -0.00106,0.00873 -5.556e-4,0.00417 -8.202e-4,0.00836 -9.525e-4,0.012565 -8.89e-5,0.00443 -7.86e-5,0.00886 -7.75e-5,0.013282 2.6e-6,0.00427 6.6e-6,0.00854 9e-6,0.012803 -2.52e-5,0.00378 5.027e-4,0.00753 7.672e-4,0.01129 2.064e-4,0.00332 2.316e-4,0.00664 2.546e-4,0.00996 1.35e-5,0.00281 8.4e-6,0.00561 5.8e-6,0.00842 -1.4e-5,0.014616 0.020656,0.014637 0.020672,1.98e-5 v 0 c 2.9e-6,-0.00286 7.9e-6,-0.00572 -6.4e-6,-0.00858 -2.67e-5,-0.00378 -6.21e-5,-0.00757 -3.175e-4,-0.011345 -2.444e-4,-0.00325 -6.879e-4,-0.0065 -7.143e-4,-0.00977 -2.4e-6,-0.00427 -6.4e-6,-0.00853 -9e-6,-0.012798 -1.1e-6,-0.00424 -1.14e-5,-0.00847 6.96e-5,-0.012705 9.28e-5,-0.00351 3.175e-4,-0.00701 7.937e-4,-0.010488 5.027e-4,-0.00383 0.00101,-0.00766 0.00122,-0.01152 -2.3e-5,-0.00329 -6.09e-5,-0.00658 -3.969e-4,-0.00985 -4.233e-4,-0.00359 -0.00111,-0.00713 -0.00161,-0.01071 -6.086e-4,-0.00439 -9.525e-4,-0.00883 -0.00185,-0.013179 -7.673e-4,-0.00407 -0.00124,-0.00817 -0.00183,-0.012263 -6.35e-4,-0.00477 -5.292e-4,-0.00958 -5.028e-4,-0.014383 0,-0.00475 0,-0.0095 -2e-7,-0.014253 0,-0.00428 0,-0.00857 -2.1e-6,-0.012848 -2.2e-6,-0.00471 -6.1e-6,-0.00943 -6.7e-6,-0.014147 2.4e-6,-0.00406 -1.53e-5,-0.00812 1.075e-4,-0.012176 1.587e-4,-0.00406 4.233e-4,-0.00813 8.731e-4,-0.012168 3.44e-4,-0.00415 4.498e-4,-0.00831 0.00101,-0.012441 4.498e-4,-0.00472 5.292e-4,-0.00948 0.00159,-0.014121 9.261e-4,-0.00407 0.00214,-0.00806 0.00309,-0.012126 6.085e-4,-0.0031 0.00214,-0.00593 0.00268,-0.00906 6.614e-4,-0.00425 0.00106,-0.00858 9.525e-4,-0.012877 -1.739e-4,-0.00442 -6.086e-4,-0.00882 -0.00156,-0.013152 -0.00111,-0.00532 -0.00249,-0.010581 -0.00304,-0.015997 -5.027e-4,-0.00355 -0.00106,-0.0071 -0.00148,-0.010663 -3.44e-4,-0.00272 6.35e-5,-0.0055 -9.29e-5,-0.00823 -2.1e-6,-0.00334 -5.8e-6,-0.00668 -4.8e-6,-0.010015 4.3e-6,-0.00363 6.1e-6,-0.00726 1.122e-4,-0.01089 1.365e-4,-0.0043 3.175e-4,-0.00859 7.673e-4,-0.012875 2.207e-4,-0.00334 1.656e-4,-0.00669 4.498e-4,-0.010025 3.704e-4,-0.0037 0.00101,-0.00734 0.00164,-0.011007 7.938e-4,-0.00436 0.00135,-0.00876 0.00241,-0.013065 6.615e-4,-0.00393 0.00114,-0.0079 0.00135,-0.011883 3.439e-4,-0.00379 4.762e-4,-0.00756 -2.617e-4,-0.011319 -5.556e-4,-0.00353 -0.00119,-0.00704 -0.00175,-0.010578 -7.673e-4,-0.00408 -0.00135,-0.00819 -0.00269,-0.012142 -0.00355,-0.014179 -0.023598,-0.00917 -0.020053,0.00501 z" />
      <path
         style="fill:#000000;stroke:#030000;stroke-width:0.1;stroke-miterlimit:4;stroke-dasharray:none"
         id="path884"
         d="m 9.5123375,4.7389563 c -0.0038,3.968e-4 -0.0074,0.00156 -0.010864,0.00312 -0.00344,0.00146 -0.00598,0.00411 -0.0087,0.00654 -0.00243,0.0023 -0.00427,0.00512 -0.0062,0.00783 -0.00124,0.00138 -0.00259,0.00368 -0.004,0.00476 -0.00201,0.00209 -0.00433,0.00383 -0.00659,0.00563 -0.00214,0.00164 -0.00427,0.00341 -0.00661,0.00478 -0.00347,0.00246 -0.00676,0.00514 -0.00993,0.00797 -0.0014,0.00167 -0.00318,0.00294 -0.00472,0.00446 -0.00185,0.00183 -8.466e-4,0.00119 -0.00175,0.00172 -0.0018,0.00159 -0.00376,0.00298 -0.00574,0.00434 -0.00387,0.00254 -0.00734,0.00554 -0.010504,0.00891 -0.00285,0.00304 -0.00499,0.00662 -0.00746,0.00994 -0.00204,0.00313 -0.00438,0.00606 -0.00648,0.00916 -0.00209,0.00267 -0.00418,0.00532 -0.00621,0.00804 -0.0031,0.00337 -0.00582,0.00704 -0.00859,0.01066 -0.00266,0.00351 -0.00488,0.00733 -0.00698,0.011187 -0.00206,0.0035 -0.00352,0.0073 -0.00531,0.010927 -0.00172,0.00335 -0.00329,0.00678 -0.00472,0.010263 -0.00159,0.00384 -0.00289,0.00779 -0.00444,0.011647 -0.00177,0.00461 -0.00378,0.00912 -0.00597,0.013539 -0.00185,0.00367 -0.00315,0.00759 -0.00484,0.01134 -0.00246,0.00497 -0.00407,0.010216 -0.00538,0.015581 -0.00156,0.00634 -0.00225,0.012816 -0.00316,0.019262 -6.085e-4,0.00368 -8.731e-4,0.00739 -0.00146,0.01107 -5.292e-4,0.00297 -7.673e-4,0.00596 -8.996e-4,0.00897 -8.7e-5,0.00384 -7.04e-5,0.00768 -6.88e-5,0.01152 4.3e-6,0.00349 6.9e-6,0.00698 8.2e-6,0.01047 1.4e-6,0.00448 1.4e-6,0.00897 1.4e-6,0.013451 -1.35e-4,0.00416 3.439e-4,0.00831 6.614e-4,0.012449 5.292e-4,0.00374 9.79e-4,0.00748 0.00169,0.011189 5.292e-4,0.00355 0.00119,0.00707 0.00206,0.010549 8.467e-4,0.00406 0.0022,0.00794 0.00368,0.0118 7.144e-4,0.00283 0.00196,0.00545 0.0031,0.00811 7.409e-4,0.00214 0.00143,0.00431 0.0018,0.00655 7.408e-4,0.00301 0.00106,0.0061 0.00164,0.00913 4.498e-4,0.00212 0.00119,0.00417 0.00153,0.00631 5.821e-4,0.00235 2.91e-4,0.0013 8.202e-4,0.0032 0.0039,0.014086 0.023823,0.00857 0.01992,-0.00552 v 0 c -2.911e-4,-0.00103 -1.5e-4,-6.086e-4 -3.704e-4,-0.00127 -4.498e-4,-0.00238 -0.00106,-0.00472 -0.00169,-0.00706 -2.91e-4,-7.673e-4 -4.13e-5,-5.08e-5 -2.91e-4,-0.00188 -3.175e-4,-0.00225 -7.673e-4,-0.00447 -0.00124,-0.00669 -7.408e-4,-0.0038 -0.00177,-0.00754 -0.00323,-0.011136 -2.448e-4,-5.557e-4 -8.467e-4,-0.00161 -0.00108,-0.0022 -6.35e-4,-0.00161 -8.996e-4,-0.00335 -0.00161,-0.00494 -0.00119,-0.00312 -0.00233,-0.00623 -0.00296,-0.00953 -8.202e-4,-0.00308 -0.00127,-0.00623 -0.0018,-0.00937 -5.821e-4,-0.00293 -8.996e-4,-0.00589 -0.00138,-0.00883 -2.91e-4,-0.00361 -7.144e-4,-0.00722 -5.821e-4,-0.010856 0,-0.00449 0,-0.00897 -1.3e-6,-0.013459 -1.3e-6,-0.00349 -4e-6,-0.00698 -8.2e-6,-0.01047 -1.6e-6,-0.00359 -1.56e-5,-0.00717 5.53e-5,-0.010761 7.07e-5,-0.00217 2.646e-4,-0.00435 6.615e-4,-0.00651 5.821e-4,-0.0038 8.996e-4,-0.00763 0.00151,-0.011427 7.937e-4,-0.0058 0.0014,-0.011623 0.0028,-0.01733 9.525e-4,-0.00414 0.00222,-0.00813 0.00414,-0.011935 0.00156,-0.00351 0.00283,-0.00714 0.00449,-0.010599 0.00243,-0.00493 0.00469,-0.00994 0.00665,-0.015068 0.00153,-0.00384 0.00284,-0.00777 0.00441,-0.011591 0.00116,-0.00303 0.00265,-0.00595 0.00409,-0.00885 0.00164,-0.00338 0.00303,-0.0069 0.00491,-0.01016 0.00159,-0.00293 0.00325,-0.00583 0.00524,-0.00851 0.00282,-0.00369 0.00563,-0.00738 0.00873,-0.010845 0.00225,-0.00302 0.00464,-0.00593 0.00687,-0.00897 0.00185,-0.00294 0.00422,-0.00554 0.00604,-0.00851 0.00191,-0.00269 0.00368,-0.00547 0.00585,-0.00797 0.00209,-0.0023 0.00446,-0.00425 0.00708,-0.00595 0.00272,-0.00188 0.00538,-0.00383 0.00786,-0.00602 0.00214,-0.00201 0.00429,-0.00404 0.00637,-0.00612 0.00228,-0.00204 0.00465,-0.00396 0.00707,-0.00583 0.00297,-0.00188 0.00582,-0.00397 0.00857,-0.00616 0.00292,-0.00233 0.00589,-0.00463 0.00847,-0.00733 0.00217,-0.0023 0.00421,-0.00474 0.0061,-0.00728 0.00108,-0.00153 0.00217,-0.00312 0.00334,-0.00458 0.00114,-0.00106 0.00228,-0.00235 0.0032,-0.0029 0.00169,-7.672e-4 0.00337,-0.0014 0.00527,-0.00148 0.01447,-0.00206 0.011546,-0.022529 -0.00292,-0.020463 z" />
      <path
         style="fill:#000000;stroke:#030000;stroke-width:0.1;stroke-miterlimit:4;stroke-dasharray:none"
         id="path886"
         d="m 9.4107544,5.1290405 c 0.00204,0.00306 0.00376,0.0063 0.00566,0.00944 0.00143,0.00214 0.00271,0.00436 0.00417,0.00647 0.00135,0.00159 0.00266,0.0032 0.00388,0.00489 0.00188,0.0022 0.00368,0.00442 0.00553,0.00662 0.00122,0.00153 0.00257,0.00297 0.00374,0.00455 0.00191,0.00214 0.00336,0.0046 0.00502,0.00695 0.00164,0.00254 0.00378,0.00474 0.00537,0.00731 0.00233,0.00333 0.00478,0.00654 0.00741,0.00963 0.00196,0.00259 0.00399,0.00508 0.00627,0.00738 0.00209,0.00167 0.00409,0.00346 0.00622,0.0051 0.00191,0.00175 0.00432,0.00271 0.00641,0.00419 0.00175,0.00153 0.00506,0.00251 0.00667,0.00403 0.00204,0.00156 0.00446,0.00262 0.0067,0.00365 0.00249,0.00138 0.00524,0.00212 0.00796,0.00291 0.00254,6.085e-4 0.00497,0.00153 0.00739,0.00249 0.00298,0.00103 0.00577,0.00251 0.00865,0.00377 0.00318,0.00177 0.00647,0.00332 0.00965,0.00509 0.00324,0.00212 0.00674,0.00364 0.01035,0.005 0.00308,0.00151 0.00644,0.00228 0.00969,0.00334 0.00539,0.00138 0.010729,0.00294 0.016137,0.00423 0.00412,6.614e-4 0.00815,0.00156 0.012144,0.00277 0.00439,0.00116 0.00886,0.00201 0.013351,0.00262 0.00355,3.44e-4 0.00706,8.731e-4 0.010615,0.00119 0.00317,5.821e-4 0.00635,0.00101 0.00956,0.00124 0.00356,2.397e-4 0.00712,2.249e-4 0.010684,2.331e-4 0.0052,2.1e-6 0.010409,-4e-6 0.015616,-6.6e-6 0.00723,-3.2e-6 0.014454,-3.2e-6 0.02168,-3.5e-6 0.00546,1.601e-4 0.010898,-1.563e-4 0.016283,-0.00103 0.00539,-9.261e-4 0.010687,-0.00225 0.015938,-0.00374 0.00419,-0.00111 0.00826,-0.00254 0.012504,-0.00342 0.00512,-6.615e-4 0.010118,-0.00198 0.015039,-0.00353 0.00486,-0.00161 0.00944,-0.00396 0.014089,-0.00608 0.00393,-0.00167 0.00786,-0.00341 0.012023,-0.00442 0.00355,-9.261e-4 0.0071,-0.00185 0.010649,-0.00282 0.00364,-0.00103 0.00738,-0.00151 0.011054,-0.00238 0.00448,-7.937e-4 0.00884,-0.0018 0.013123,-0.00338 0.0039,-0.00164 0.00774,-0.00342 0.011311,-0.00568 0.00151,-7.673e-4 0.00311,-0.00143 0.00471,-0.00198 0.00373,-0.00175 0.00751,-0.00336 0.011189,-0.0052 0.00365,-0.00156 0.00722,-0.00328 0.010708,-0.00517 0.00373,-0.00164 0.00717,-0.00385 0.010478,-0.00622 0.00393,-0.00272 0.00634,-0.00678 0.00904,-0.010589 0.00259,-0.00301 0.00437,-0.00657 0.00661,-0.00982 0.00172,-0.00259 0.00352,-0.00515 0.00577,-0.00732 0.00196,-0.00135 0.00385,-0.00277 0.00579,-0.00414 0.00337,-0.00222 0.00658,-0.00457 0.00951,-0.00736 0.00238,-0.00267 0.00502,-0.00519 0.00665,-0.00843 5.027e-4,-0.00101 8.731e-4,-0.00209 0.00132,-0.00315 0.00124,-0.00262 0.0013,-0.00571 0.00265,-0.00828 0.00111,-0.00291 0.00251,-0.00566 0.00419,-0.00827 0.00204,-0.00266 0.00408,-0.00534 0.00601,-0.0081 0.00251,-0.00265 0.00459,-0.00557 0.00631,-0.00879 0.00132,-0.00278 0.00262,-0.00558 0.00409,-0.00829 0.00153,-0.00328 0.0037,-0.0062 0.00568,-0.00922 0.00288,-0.00401 0.00577,-0.00798 0.00819,-0.012285 0.00249,-0.00473 0.00356,-0.00997 0.00477,-0.015129 0.00116,-0.0055 0.00193,-0.011078 0.00262,-0.016655 3.704e-4,-0.00371 0.00119,-0.00732 0.00217,-0.010896 4.498e-4,-0.00262 0.00143,-0.00504 0.00225,-0.00755 0.00124,-0.004 0.0014,-0.00818 0.00151,-0.01233 7.3e-5,-0.00387 5.45e-5,-0.00773 4.89e-5,-0.011594 -6.3e-6,-0.00377 -1.06e-5,-0.00754 -1.29e-5,-0.011316 3.46e-5,-0.00362 -4.763e-4,-0.00722 -7.938e-4,-0.010824 -1.796e-4,-0.00351 -1.979e-4,-0.00699 -5.821e-4,-0.010477 -8.202e-4,-0.00436 -0.00127,-0.00875 -0.00151,-0.013171 -2.069e-4,-0.00439 -2.167e-4,-0.00878 -2.254e-4,-0.013179 -1.6e-6,-0.00498 6.1e-6,-0.00996 9.5e-6,-0.014944 1.434e-4,-0.00518 -7.25e-5,-0.010332 -5.027e-4,-0.015489 -5.027e-4,-0.00611 -0.00297,-0.011748 -0.00552,-0.01724 -0.00222,-0.00482 -0.00564,-0.00884 -0.00904,-0.012846 -0.00185,-0.00235 -0.00354,-0.00483 -0.00511,-0.00738 -0.00183,-0.00251 -0.00304,-0.00535 -0.00436,-0.00814 -0.00172,-0.00379 -0.00423,-0.00713 -0.00663,-0.010507 -0.00276,-0.00359 -0.00536,-0.00729 -0.00818,-0.010829 -0.00288,-0.00297 -0.00479,-0.0066 -0.00694,-0.010089 -0.00388,-0.00676 -0.00842,-0.013084 -0.013102,-0.019304 -0.00306,-0.0041 -0.00657,-0.00784 -0.010004,-0.011631 -0.00262,-0.0029 -0.00477,-0.00617 -0.00706,-0.00932 -0.00398,-0.00564 -0.00771,-0.011451 -0.011795,-0.017007 -0.00311,-0.00427 -0.00667,-0.00814 -0.01061,-0.011655 -0.0045,-0.00359 -0.0095,-0.00645 -0.014272,-0.00964 -0.00645,-0.00374 -0.012766,-0.00769 -0.01905,-0.011705 -0.00434,-0.0028 -0.00875,-0.00546 -0.013385,-0.00774 -0.00286,-0.00143 -0.00579,-0.00271 -0.00879,-0.00382 -0.00383,-0.00143 -0.00776,-0.00259 -0.011655,-0.00385 -0.00476,-0.0014 -0.00954,-0.00271 -0.014285,-0.00417 -0.00273,-7.673e-4 -0.00156,-3.969e-4 -0.00355,-0.00108 -0.013843,-0.00469 -0.020476,0.014888 -0.00663,0.019579 v 0 c 0.00284,9.525e-4 0.00148,5.292e-4 0.00409,0.00127 0.00468,0.00143 0.00938,0.00275 0.014086,0.00411 0.0036,0.00114 0.00722,0.00222 0.010758,0.00354 0.00235,8.731e-4 0.00463,0.00188 0.00686,0.003 0.00395,0.00193 0.00768,0.00423 0.01138,0.00661 0.00617,0.00394 0.012361,0.00786 0.018719,0.011488 0.00401,0.00266 0.00814,0.00513 0.012052,0.00793 0.00289,0.00251 0.0054,0.00539 0.00768,0.00846 0.0041,0.00546 0.00767,0.0113 0.011668,0.016835 0.00274,0.00377 0.00535,0.00765 0.0085,0.011091 0.00302,0.0033 0.00608,0.00658 0.00878,0.010152 0.0043,0.0057 0.00847,0.011504 0.01202,0.017716 0.00259,0.0042 0.005,0.00856 0.00842,0.012184 0.00259,0.0032 0.0049,0.00661 0.00745,0.00985 0.00169,0.00238 0.00356,0.00472 0.0048,0.00739 0.00167,0.00348 0.00322,0.007 0.00546,0.01016 0.00212,0.00342 0.00439,0.00676 0.00693,0.00989 0.0022,0.00259 0.00457,0.00511 0.00606,0.0082 0.00153,0.00326 0.00323,0.00659 0.00365,0.010202 3.705e-4,0.00459 5.821e-4,0.00917 4.234e-4,0.013771 -3.5e-6,0.005 -1.11e-5,0.01 -9.6e-6,0.014999 9.8e-6,0.00477 2.52e-5,0.00955 2.591e-4,0.014314 2.91e-4,0.00497 7.673e-4,0.00994 0.00167,0.014841 3.175e-4,0.00114 1.511e-4,3.44e-4 1.834e-4,0.00233 3.81e-5,0.00235 1.045e-4,0.0047 2.91e-4,0.00705 2.57e-4,0.00303 7.144e-4,0.00606 7.144e-4,0.0091 2.4e-6,0.00378 6.6e-6,0.00755 1.3e-5,0.011332 5.3e-6,0.00368 2.33e-5,0.00735 -4.18e-5,0.011028 -5.4e-5,0.00217 -4.95e-5,0.00436 -5.027e-4,0.00649 -8.732e-4,0.00279 -0.00196,0.00552 -0.00251,0.00841 -0.00127,0.00457 -0.00228,0.0092 -0.00278,0.013933 -5.821e-4,0.00483 -0.00127,0.00966 -0.00222,0.01443 -7.673e-4,0.00334 -0.00138,0.00677 -0.00278,0.00991 -0.00201,0.00388 -0.00493,0.00719 -0.00732,0.010843 -0.00233,0.00355 -0.00482,0.00701 -0.00665,0.010861 -0.00151,0.00284 -0.00291,0.00573 -0.00427,0.00864 -9.79e-4,0.00249 -0.00349,0.00409 -0.00486,0.00637 -0.00206,0.00299 -0.00435,0.00582 -0.00646,0.00877 -0.00228,0.00359 -0.00426,0.00734 -0.0058,0.011314 -0.00122,0.003 -0.00206,0.00609 -0.00299,0.00918 4.762e-4,5.556e-4 -0.00284,0.00361 -0.00324,0.0042 -5.027e-4,7.673e-4 -8.73e-5,2.196e-4 -0.00143,0.00127 -0.00172,0.00135 -0.00362,0.00243 -0.00536,0.00378 -0.00284,0.00201 -0.00573,0.00399 -0.00836,0.00628 -0.00323,0.00321 -0.00602,0.0068 -0.0085,0.01062 -0.00206,0.00316 -0.0039,0.00645 -0.00631,0.00937 -0.00135,0.00196 -0.00249,0.00418 -0.00429,0.00575 -0.00251,0.0019 -0.0053,0.00344 -0.00817,0.00476 -0.00328,0.0018 -0.00669,0.00334 -0.010115,0.00486 -0.00296,0.00151 -0.00604,0.00273 -0.00899,0.00425 -0.00313,0.00116 -0.00629,0.00238 -0.0091,0.00419 -0.00135,0.00138 -0.00532,0.00243 -0.00705,0.00351 -0.00348,0.00132 -0.00706,0.0019 -0.0107,0.00265 -0.00385,9.525e-4 -0.00783,0.00135 -0.011639,0.00251 -0.00345,9.261e-4 -0.00688,0.00185 -0.010343,0.00274 -0.00536,0.00138 -0.010509,0.0034 -0.015563,0.00566 -0.00387,0.00177 -0.00769,0.00371 -0.011695,0.00516 -0.00429,0.00135 -0.00865,0.00246 -0.013129,0.00303 -0.00471,0.00101 -0.00926,0.00249 -0.013896,0.00377 -0.00456,0.0013 -0.00915,0.00243 -0.013832,0.00325 -0.00417,8.732e-4 -0.00849,6.88e-4 -0.012719,7.144e-4 -0.00723,3e-7 -0.01446,3e-7 -0.021691,3.5e-6 -0.00519,2.6e-6 -0.010372,8.4e-6 -0.015557,6.6e-6 -0.00305,-6.6e-6 -0.0061,1.29e-5 -0.00915,-1.725e-4 -0.00314,-2.342e-4 -0.00622,-7.673e-4 -0.00933,-0.00124 -0.00323,-2.91e-4 -0.00643,-7.937e-4 -0.00967,-0.00108 -0.00342,-4.498e-4 -0.00681,-0.00111 -0.010157,-0.00193 -0.00439,-0.00132 -0.00881,-0.00238 -0.013332,-0.00309 -0.00487,-0.00114 -0.00965,-0.00262 -0.014518,-0.00377 -0.00296,-9.525e-4 -0.00599,-0.00164 -0.00879,-0.00303 -0.00267,-0.00101 -0.00523,-0.00209 -0.0076,-0.00373 -0.00378,-0.00209 -0.00766,-0.00398 -0.01148,-0.00599 -0.0031,-0.0013 -0.00605,-0.00294 -0.00925,-0.00401 -0.00303,-0.00119 -0.00609,-0.00233 -0.00926,-0.00312 -0.0014,-3.968e-4 -0.0028,-6.879e-4 -0.00405,-0.00132 -0.00159,-7.937e-4 -0.00307,-0.00127 -0.00444,-0.00225 -0.00225,-0.00153 -0.00465,-0.00283 -0.00698,-0.00424 -0.0018,-0.00119 -0.00374,-0.00214 -0.00542,-0.00348 -0.00146,-0.00111 -0.00289,-0.00249 -0.00433,-0.00345 -0.00201,-0.00169 -0.00326,-0.00417 -0.00505,-0.00607 -0.00212,-0.00246 -0.00406,-0.00502 -0.00592,-0.00767 -0.0018,-0.00265 -0.00383,-0.00514 -0.00568,-0.00775 -0.0018,-0.00257 -0.00344,-0.00527 -0.00552,-0.00763 -0.00143,-0.00183 -0.00295,-0.00357 -0.00441,-0.00537 -0.00151,-0.00172 -0.00284,-0.00362 -0.00446,-0.00525 -0.00127,-0.00175 -0.00257,-0.00356 -0.00405,-0.00514 2.117e-4,5.556e-4 1.109e-4,2.537e-4 -3.968e-4,-6.085e-4 -6.086e-4,-0.00103 -0.0013,-0.00198 -0.00193,-0.00299 -2.91e-4,-4.498e-4 -5.556e-4,-9.525e-4 -8.467e-4,-0.0014 -0.0022,-0.00351 -0.00406,-0.00724 -0.00645,-0.010628 -0.0085,-0.011893 -0.025315,1.209e-4 -0.01682,0.012015 z" />
      <path
         style="fill:#000000;stroke:#030000;stroke-width:0.1;stroke-miterlimit:4;stroke-dasharray:none"
         id="path888"
         d="m 9.7410539,4.6434012 c 0.00164,-0.00863 0.00282,-0.017333 0.00379,-0.026056 0.00103,-0.00974 0.00119,-0.019542 0.00132,-0.029327 6.93e-5,-0.00709 4.76e-5,-0.014184 3.76e-5,-0.021278 -1.17e-5,-0.00731 -1.48e-5,-0.014626 -1.72e-5,-0.021939 1.471e-4,-0.00756 -1.371e-4,-0.015113 -4.763e-4,-0.022664 -2.91e-4,-0.0068 -0.0013,-0.013528 -0.00206,-0.020283 -7.408e-4,-0.005 -0.00116,-0.010022 -0.00143,-0.015065 -1.923e-4,-0.00495 -1.846e-4,-0.00991 -1.907e-4,-0.014867 -2.347e-4,-0.00527 -6.086e-4,-0.010536 -8.467e-4,-0.015809 -4.762e-4,-0.00484 -0.00127,-0.00965 -0.00204,-0.014459 -6.614e-4,-0.00395 -9.789e-4,-0.00795 -0.00114,-0.011954 -1.386e-4,-0.00421 -5.42e-5,-0.00841 -2.513e-4,-0.012618 -4.498e-4,-0.00621 -6.35e-4,-0.01243 -7.673e-4,-0.018653 -1.104e-4,-0.0057 -1.128e-4,-0.011404 -1.178e-4,-0.017105 -1.8e-6,-0.00428 2.1e-6,-0.00856 4.5e-6,-0.012843 1.6e-6,-0.00274 1.9e-6,-0.00547 2.1e-6,-0.0082 2.273e-4,-0.00547 -6.879e-4,-0.010869 -0.00151,-0.016253 -7.408e-4,-0.00487 -0.00122,-0.00977 -0.00151,-0.01469 -1.561e-4,-0.00366 -1.201e-4,-0.00732 -1.183e-4,-0.010975 9e-6,-0.00884 1.32e-5,-0.01769 1.64e-5,-0.026534 1.9e-6,-0.00561 2.9e-6,-0.011218 3.2e-6,-0.01683 -3.44e-4,-0.00468 -6.615e-4,-0.00934 -8.467e-4,-0.014031 -1.5e-4,-0.00452 -1.704e-4,-0.00904 -1.836e-4,-0.013557 -3.78e-5,-0.00402 -6.03e-5,-0.00804 2.633e-4,-0.012049 5.291e-4,-0.00377 0.00114,-0.00752 0.00193,-0.011242 0.00122,-0.00541 0.00193,-0.010911 0.00274,-0.016394 6.35e-4,-0.00416 0.00103,-0.00836 0.00122,-0.012565 1.36e-4,-0.00574 -0.00116,-0.011393 -0.00183,-0.017074 -8.202e-4,-0.00631 -0.00156,-0.012631 -0.00204,-0.018976 -1.831e-4,-0.0022 -2.911e-4,-0.00436 -1.35e-5,-0.00652 0.00114,-0.00505 0.00135,-0.010255 0.00161,-0.015412 1.966e-4,-0.00482 2.609e-4,-0.00963 2.911e-4,-0.014454 3.969e-4,-0.00257 6.35e-4,-0.00515 8.202e-4,-0.00774 9.37e-5,-0.00135 1.339e-4,-0.00269 1.725e-4,-0.00403 3.969e-4,-0.01461 -0.020254,-0.015187 -0.020661,-5.821e-4 v 0 c -2.83e-5,0.00103 -5.72e-5,0.00209 -1.27e-4,0.00312 -2.167e-4,0.00306 -6.615e-4,0.00609 -8.731e-4,0.00914 -1.91e-5,0.00453 -7.78e-5,0.00906 -2.604e-4,0.013594 -2.101e-4,0.00464 -4.233e-4,0.00929 -0.00146,0.01384 -4.233e-4,0.00353 -3.969e-4,0.00705 -8.25e-5,0.010586 5.027e-4,0.00664 0.00124,0.013264 0.00212,0.019865 5.556e-4,0.00457 0.00151,0.00914 0.00172,0.013732 -1.487e-4,0.0035 -4.762e-4,0.00699 -0.00101,0.010451 -7.408e-4,0.00508 -0.00138,0.010181 -0.00254,0.015192 -9.525e-4,0.00458 -0.00172,0.00919 -0.0023,0.01383 -3.439e-4,0.00458 -3.969e-4,0.00915 -3.175e-4,0.01374 1.43e-5,0.00477 3.76e-5,0.00954 1.998e-4,0.014311 1.749e-4,0.00441 3.969e-4,0.00882 8.466e-4,0.013213 -2e-7,0.00561 -1.3e-6,0.011216 -3.1e-6,0.016822 -3.2e-6,0.00884 -7.4e-6,0.017687 -1.64e-5,0.026531 -2.1e-6,0.00405 -3.84e-5,0.00809 1.5e-4,0.012134 3.175e-4,0.00558 8.731e-4,0.011144 0.00169,0.016671 6.615e-4,0.00435 0.00148,0.0087 0.00127,0.013121 -2e-7,0.00273 -5e-7,0.00546 -2.1e-6,0.00819 -2.4e-6,0.00429 -6.3e-6,0.00858 -4.5e-6,0.012872 5e-6,0.00585 8.5e-6,0.011695 1.228e-4,0.017539 1.415e-4,0.00642 3.439e-4,0.012846 7.937e-4,0.019256 2.413e-4,0.00416 3.6e-5,0.00834 2.464e-4,0.012515 2.238e-4,0.00477 5.82e-4,0.00954 0.00138,0.01425 6.35e-4,0.00403 0.00127,0.00807 0.0018,0.012115 2.188e-4,0.00498 5.556e-4,0.00995 8.202e-4,0.01493 6.6e-6,0.0053 8e-7,0.010597 2.172e-4,0.015888 2.91e-4,0.00545 7.408e-4,0.010888 0.00153,0.016288 6.879e-4,0.00631 0.00164,0.0126 0.00196,0.018952 3.175e-4,0.00724 6.085e-4,0.014481 4.498e-4,0.02173 2.4e-6,0.00732 5.8e-6,0.014642 1.72e-5,0.021963 10e-6,0.00699 3.17e-5,0.013988 -3.57e-5,0.020982 -1.167e-4,0.00911 -2.48e-4,0.018246 -0.00119,0.027319 -8.996e-4,0.00813 -0.00201,0.016237 -0.00351,0.024275 -0.00287,0.014333 0.017402,0.018386 0.02027,0.00405 z" />
      <path
         style="fill:#000000;stroke:#030000;stroke-width:0.1;stroke-miterlimit:4;stroke-dasharray:none"
         id="path890"
         d="m 9.7419796,4.0694863 c 0.00276,-0.00793 0.00469,-0.016103 0.00646,-0.024299 0.00228,-0.011398 0.00439,-0.022831 0.00639,-0.034284 0.00196,-0.00889 0.00291,-0.017923 0.00343,-0.026997 2.646e-4,-0.00701 5.027e-4,-0.014026 2.244e-4,-0.021034 2.9e-6,-0.00684 -0.00217,-0.013211 -0.00454,-0.019529 -0.00114,-0.00361 -0.00348,-0.00674 -0.00449,-0.010387 -2.146e-4,-0.00114 -2.019e-4,-0.00233 -2.14e-4,-0.00349 1.8e-6,-0.00241 2.11e-5,-0.00479 3.01e-5,-0.00719 9.5e-5,-0.00382 -4.762e-4,-0.00759 -0.00127,-0.011319 -0.00314,-0.014274 -0.023328,-0.00983 -0.020188,0.00444 v 0 c 5.292e-4,0.00222 8.467e-4,0.00451 7.938e-4,0.0068 -9.3e-6,0.00251 -3.15e-5,0.00502 -2.84e-5,0.00753 4.61e-5,0.00318 2.342e-4,0.00637 0.00116,0.00944 0.0013,0.00396 0.00321,0.00762 0.00485,0.011438 0.00169,0.00452 0.00328,0.00822 0.00324,0.013166 3.175e-4,0.00631 -2.38e-5,0.012644 -2.106e-4,0.018955 -4.763e-4,0.00828 -0.00135,0.016507 -0.00316,0.024617 -0.00196,0.011184 -0.00401,0.022349 -0.00623,0.033482 -0.00172,0.00798 -0.00367,0.015907 -0.00631,0.023643 -0.00355,0.014179 0.016507,0.019193 0.020053,0.00501 z" />
      <path
         style="fill:#000000;stroke:#030000;stroke-width:0.1;stroke-miterlimit:4;stroke-dasharray:none"
         id="path892"
         d="m 9.7390216,3.8598051 c 0.00114,-0.00822 0.0014,-0.016518 0.00167,-0.024802 3.969e-4,-0.00689 6.35e-4,-0.013806 0.00151,-0.020661 9.26e-4,-0.00611 0.00185,-0.012211 0.00254,-0.018357 9.79e-4,-0.00917 0.0013,-0.018367 8.996e-4,-0.027575 -5.027e-4,-0.00767 -0.00132,-0.015319 -0.0023,-0.022942 -7.408e-4,-0.00484 -0.00106,-0.00972 -0.00122,-0.014613 -3.704e-4,-0.00654 -7.673e-4,-0.01307 -9.789e-4,-0.019614 -1.445e-4,-0.00509 -1.646e-4,-0.010181 -1.741e-4,-0.015272 1.381e-4,-0.00788 -2.175e-4,-0.015756 -0.00111,-0.02359 -8.466e-4,-0.00725 -0.00283,-0.014288 -0.0042,-0.021442 -6.879e-4,-0.0039 -8.202e-4,-0.00786 -8.996e-4,-0.011808 -4.44e-5,-0.00484 -1.56e-5,-0.00967 -6.6e-6,-0.014507 1.14e-5,-0.00646 1.46e-5,-0.012909 1.64e-5,-0.019365 1.572e-4,-0.00801 -6.085e-4,-0.01601 -0.00193,-0.023908 -0.00103,-0.00482 -0.00172,-0.00969 -0.00204,-0.01461 -2.183e-4,-0.00453 -1.99e-4,-0.00906 -2e-4,-0.013592 5e-5,-0.00466 5.291e-4,-0.00931 7.673e-4,-0.013962 2.381e-4,-0.00491 5.74e-5,-0.00984 7.937e-4,-0.014713 9.525e-4,-0.00399 0.00172,-0.00801 0.00262,-0.01201 7.937e-4,-0.004 0.00148,-0.00802 0.00222,-0.012036 2.91e-4,-0.00276 8.996e-4,-0.00547 0.00135,-0.00822 3.968e-4,-0.00259 5.027e-4,-0.00522 5.556e-4,-0.00784 1.11e-5,-0.00116 -1.088e-4,-0.00148 6e-5,-9.79e-4 0.0018,-0.014504 -0.018717,-0.017047 -0.020513,-0.00254 v 0 c -2.35e-4,0.00251 -1.992e-4,0.00146 -2.141e-4,0.00315 -2.72e-5,0.00164 -5.87e-5,0.00328 -2.91e-4,0.0049 -3.969e-4,0.00259 -0.00101,0.00515 -0.00127,0.00777 -6.879e-4,0.00377 -0.00132,0.00754 -0.00206,0.011303 -0.00101,0.00454 -0.00196,0.0091 -0.00292,0.013647 -7.143e-4,0.00548 -8.466e-4,0.010996 -9.525e-4,0.01652 -2.495e-4,0.005 -7.672e-4,0.00999 -7.937e-4,0.015005 1.6e-6,0.00498 -1.61e-5,0.00997 2.455e-4,0.014954 3.704e-4,0.00561 0.00108,0.011173 0.00228,0.016674 0.00116,0.00675 0.00177,0.01361 0.00164,0.020468 -1.9e-6,0.00644 -5.1e-6,0.012888 -1.64e-5,0.01933 -9.3e-6,0.00499 -4.03e-5,0.00998 1.11e-5,0.014973 1.082e-4,0.00512 3.439e-4,0.010247 0.00127,0.01529 0.0013,0.00664 0.00308,0.013182 0.00396,0.019902 8.202e-4,0.00706 0.00108,0.014158 9.789e-4,0.021262 1.01e-5,0.0053 3.26e-5,0.010594 1.845e-4,0.015888 2.084e-4,0.00654 5.82e-4,0.013063 9.789e-4,0.019592 1.744e-4,0.00555 5.292e-4,0.011091 0.00138,0.016587 8.996e-4,0.00707 0.00167,0.014163 0.00214,0.02127 3.968e-4,0.00814 2.88e-5,0.016272 -7.938e-4,0.024376 -6.614e-4,0.00606 -0.00161,0.012068 -0.00251,0.018098 -8.996e-4,0.00748 -0.00124,0.015002 -0.00164,0.022521 -2.519e-4,0.00788 -5.292e-4,0.015772 -0.00161,0.023593 -0.00132,0.014557 0.019262,0.016428 0.020585,0.00188 z" />
      <path
         style="fill:#000000;stroke:#030000;stroke-width:0.1;stroke-miterlimit:4;stroke-dasharray:none"
         id="path894"
         d="m 9.7690891,3.5354937 c 0.00498,0.00312 0.010036,0.00614 0.015057,0.0092 0.00471,0.00332 0.00993,0.00602 0.014258,0.00987 0.00273,0.00251 0.00564,0.00482 0.0083,0.0074 0.00217,0.00185 0.00381,0.00422 0.0055,0.00651 0.00222,0.00299 0.00432,0.00605 0.00648,0.00907 0.00297,0.00451 0.0066,0.00851 0.010213,0.012501 0.00304,0.00356 0.00642,0.00679 0.010007,0.00979 0.00365,0.00276 0.00685,0.00594 0.00988,0.00934 0.00456,0.00511 0.0082,0.010917 0.011896,0.016663 0.00491,0.00807 0.00994,0.016044 0.015261,0.023847 0.00333,0.00529 0.00691,0.010387 0.010763,0.015303 0.00334,0.00379 0.00711,0.00719 0.010845,0.010575 0.005,0.00433 0.010313,0.00827 0.015351,0.012562 0.00598,0.00512 0.011896,0.010316 0.017849,0.015468 0.00344,0.00282 0.00668,0.00584 0.00983,0.00897 0.00359,0.00314 0.00717,0.0063 0.010771,0.00943 0.0056,0.0046 0.01165,0.00864 0.01774,0.012568 0.00608,0.0041 0.011814,0.00868 0.017764,0.01297 0.00517,0.00354 0.010417,0.00698 0.015288,0.01093 0.0038,0.00304 0.0073,0.00642 0.0109,0.00967 0.003,0.00262 0.0058,0.00536 0.0087,0.00814 0.0035,0.0032 0.007,0.0063 0.0106,0.0094 0.0031,0.00294 0.0066,0.00539 0.0097,0.00834 0.003,0.00315 0.006,0.00633 0.0089,0.00958 0.0022,0.00251 0.0044,0.00505 0.0063,0.00774 0.0019,0.00241 0.0039,0.00479 0.0058,0.00721 0.0022,0.00262 0.0044,0.00526 0.0065,0.0079 0.0024,0.00273 0.0044,0.00571 0.0065,0.00866 0.0027,0.00357 0.0053,0.00724 0.0081,0.010787 0.0031,0.00383 0.0065,0.00742 0.0097,0.011234 0.0029,0.00373 0.0059,0.00744 0.0089,0.011033 0.0035,0.00382 0.0067,0.00792 0.01001,0.011843 0.004,0.0042 0.0081,0.00834 0.0122,0.012404 0.0038,0.00371 0.0077,0.00728 0.01156,0.010954 0.005,0.00467 0.0098,0.00946 0.01486,0.014041 0.0045,0.00408 0.0088,0.00838 0.01336,0.012457 0.0051,0.00446 0.01004,0.00908 0.01536,0.013274 0.0048,0.00363 0.0095,0.00749 0.01427,0.011166 0.0035,0.00246 0.0069,0.00515 0.01024,0.00782 0.0048,0.00416 0.0095,0.00843 0.01438,0.012557 0.0038,0.003 0.0074,0.0062 0.01087,0.00951 0.0029,0.00277 0.0055,0.00579 0.0082,0.00867 0.0028,0.0028 0.0054,0.00566 0.0078,0.00879 0.0027,0.00337 0.0052,0.00692 0.0081,0.010226 0.0015,0.00193 0.0035,0.0033 0.0047,0.00541 0.0081,0.012195 0.0253,7.938e-4 0.01724,-0.011396 v 0 c -0.0019,-0.00276 -0.0041,-0.00518 -0.0064,-0.00757 -0.0026,-0.00288 -0.0047,-0.00626 -0.0072,-0.00922 -0.0029,-0.00374 -0.006,-0.00723 -0.0093,-0.010581 -0.003,-0.00309 -0.0058,-0.0064 -0.0089,-0.00936 -0.0038,-0.00353 -0.0076,-0.007 -0.01165,-0.010213 -0.005,-0.00428 -0.0099,-0.00873 -0.01493,-0.013012 -0.0035,-0.00274 -0.0069,-0.00551 -0.0105,-0.00802 -0.0047,-0.00365 -0.0094,-0.00747 -0.01415,-0.011073 -0.005,-0.00384 -0.0095,-0.00827 -0.01428,-0.012367 -0.0045,-0.00403 -0.0088,-0.00834 -0.01328,-0.012382 -0.0049,-0.00445 -0.0096,-0.00913 -0.01446,-0.013668 -0.0038,-0.00361 -0.0076,-0.00715 -0.01139,-0.010787 -0.0037,-0.00363 -0.0073,-0.00737 -0.01097,-0.011083 -0.0034,-0.00393 -0.0065,-0.00804 -0.01003,-0.011861 -0.003,-0.0035 -0.0059,-0.00713 -0.0087,-0.010758 -0.003,-0.00363 -0.0062,-0.0071 -0.0093,-0.01071 -0.0026,-0.00332 -0.005,-0.00677 -0.0076,-0.010099 -0.0024,-0.00333 -0.0047,-0.00668 -0.0074,-0.00979 -0.0021,-0.00257 -0.0042,-0.00516 -0.0064,-0.0077 -0.0018,-0.00225 -0.0036,-0.00441 -0.0054,-0.00665 -0.0024,-0.00314 -0.0049,-0.00619 -0.0075,-0.00913 -0.0033,-0.00369 -0.0067,-0.00732 -0.0101,-0.010858 -0.0033,-0.00311 -0.007,-0.00585 -0.01033,-0.00893 -0.0033,-0.00281 -0.0065,-0.00567 -0.0097,-0.00855 -0.003,-0.00297 -0.0061,-0.00591 -0.0093,-0.00873 -0.0039,-0.00349 -0.0076,-0.00712 -0.01173,-0.010387 -0.0052,-0.00417 -0.01067,-0.00791 -0.016192,-0.011623 -0.00625,-0.0045 -0.01225,-0.00933 -0.018666,-0.013584 -0.00526,-0.00337 -0.010472,-0.00686 -0.015343,-0.010768 -0.00325,-0.00283 -0.00647,-0.00571 -0.00976,-0.00849 -0.00349,-0.00347 -0.00708,-0.00682 -0.010885,-0.00996 -0.006,-0.00519 -0.011954,-0.01043 -0.017984,-0.015584 -0.00488,-0.00414 -0.00997,-0.008 -0.014856,-0.012129 -0.00287,-0.00259 -0.00574,-0.00523 -0.00845,-0.008 -0.00357,-0.00456 -0.00688,-0.00931 -0.00996,-0.014213 -0.00522,-0.00764 -0.010128,-0.015475 -0.014949,-0.023373 -0.00428,-0.00666 -0.00856,-0.013335 -0.013862,-0.019248 -0.00372,-0.00416 -0.00765,-0.00806 -0.012081,-0.011467 -0.00285,-0.00235 -0.0055,-0.00492 -0.00789,-0.00776 -0.00309,-0.00341 -0.00623,-0.00681 -0.00874,-0.010679 -0.00222,-0.0031 -0.00438,-0.00623 -0.00664,-0.00929 -0.00241,-0.00325 -0.00483,-0.00653 -0.00787,-0.00921 -0.00297,-0.0028 -0.00609,-0.00543 -0.00913,-0.00815 -0.00529,-0.00444 -0.011173,-0.00805 -0.016941,-0.011816 -0.00478,-0.00291 -0.00958,-0.00579 -0.014346,-0.00874 -0.01216,-0.00811 -0.023627,0.00909 -0.011467,0.017198 z" />
      <path
         style="fill:#000000;stroke:#030000;stroke-width:0.1;stroke-miterlimit:4;stroke-dasharray:none"
         id="path896"
         d="m 10.231933,4.065071 c 1.07e-4,0.00619 -3.43e-4,0.012359 -6.08e-4,0.018534 -2.91e-4,0.00714 -3.7e-4,0.01429 -3.97e-4,0.021437 -2.3e-5,0.00381 -2.2e-5,0.00762 -1.9e-5,0.01143 2.4e-5,0.00249 7.5e-5,0.00493 -2.2e-4,0.00738 -9.1e-5,0.00257 -0.0012,0.00484 -0.0021,0.00723 -6.61e-4,0.003 -0.0017,0.00589 -0.0025,0.00884 -9.79e-4,0.00296 -0.002,0.00587 -0.0026,0.00892 -9.79e-4,0.00542 -8.2e-4,0.010901 -3.97e-4,0.016359 8.2e-4,0.00612 0.0017,0.012245 0.0032,0.018235 0.0013,0.0042 0.0022,0.00849 0.0034,0.012713 9.26e-4,0.0037 0.0025,0.00719 0.0034,0.010898 0.0011,0.00526 0.0019,0.010599 0.0028,0.015901 6.35e-4,0.00297 6.62e-4,0.00603 0.0012,0.00901 3.71e-4,0.00222 8.21e-4,0.00381 0.0014,0.00594 0.0012,0.00495 0.0029,0.00977 0.0047,0.014499 0.0019,0.00507 0.0046,0.00976 0.0072,0.014507 0.0031,0.00533 0.0064,0.010528 0.0097,0.015679 0.0029,0.00418 0.0054,0.00855 0.0079,0.01292 0.0024,0.0041 0.0048,0.00817 0.0074,0.012152 0.0027,0.00435 0.0056,0.0086 0.0086,0.012724 0.0025,0.00333 0.0053,0.00644 0.008,0.0096 0.0025,0.00321 0.0054,0.0061 0.0085,0.00884 0.0028,0.00319 0.0062,0.00583 0.0096,0.00832 0.0041,0.00314 0.0086,0.00564 0.01309,0.00826 0.0042,0.00259 0.0085,0.00486 0.01277,0.00717 0.0055,0.00332 0.01112,0.00647 0.01656,0.00991 0.0054,0.00349 0.01116,0.00647 0.01678,0.00962 0.006,0.00339 0.0123,0.00633 0.01859,0.00919 0.0054,0.00246 0.01097,0.00459 0.01657,0.00657 0.0049,0.00175 0.0098,0.00359 0.01474,0.00531 0.0059,0.00209 0.0119,0.00399 0.01787,0.0059 0.0056,0.00201 0.01139,0.00329 0.01724,0.00426 0.0051,0.00103 0.01021,0.00146 0.01536,0.00172 0.0047,3.33e-5 0.0093,3.175e-4 0.01392,6.35e-4 0.006,3.969e-4 0.01204,-2.4e-6 0.01806,-2.122e-4 0.0048,-5.821e-4 0.0095,-0.00138 0.01428,-0.00222 0.0041,-0.00103 0.0083,-0.00238 0.0122,-0.00401 0.005,-0.00228 0.0092,-0.00593 0.01396,-0.00878 0.0031,-0.0022 0.0066,-0.00283 0.01016,-0.00375 0.0039,-0.00132 0.0079,-0.00217 0.01192,-0.00306 0.0027,-6.085e-4 0.0053,-9.789e-4 0.0081,-0.00111 6.61e-4,-8.52e-5 0.0013,-1.707e-4 0.002,-2.559e-4 0.01446,-0.00209 0.0115,-0.022556 -0.003,-0.020458 v 0 c -9.5e-5,2.62e-5 -1.89e-4,5.22e-5 -2.91e-4,7.84e-5 -0.0038,2.346e-4 -0.0076,7.408e-4 -0.01127,0.00156 -0.0042,9.26e-4 -0.0085,0.00185 -0.01266,0.00323 -0.0055,0.00143 -0.01097,0.00287 -0.01574,0.00611 -0.0039,0.00238 -0.0075,0.00521 -0.01143,0.00747 -0.0024,0.00119 -0.0052,0.00172 -0.0077,0.00265 -0.0037,7.144e-4 -0.0075,0.00119 -0.01128,0.00191 -0.0053,1.844e-4 -0.0106,5.556e-4 -0.01589,2.5e-4 -0.0048,-3.439e-4 -0.0096,-6.35e-4 -0.01437,-6.614e-4 -0.0044,-2.077e-4 -0.0087,-5.557e-4 -0.01302,-0.00146 -0.0049,-7.938e-4 -0.0097,-0.00185 -0.01428,-0.00355 -0.0058,-0.00185 -0.01161,-0.0037 -0.01736,-0.00573 -0.0049,-0.00169 -0.0098,-0.00355 -0.01465,-0.00528 -0.005,-0.00177 -0.01005,-0.00371 -0.01494,-0.00591 -0.0058,-0.00262 -0.01152,-0.0053 -0.01704,-0.0084 -0.0053,-0.00297 -0.01072,-0.00578 -0.01585,-0.00907 -0.0058,-0.00367 -0.01185,-0.00709 -0.01778,-0.010615 -0.0041,-0.0022 -0.0082,-0.00433 -0.01209,-0.00679 -0.0039,-0.0023 -0.0079,-0.00446 -0.01152,-0.00724 -0.0028,-0.00198 -0.0055,-0.00429 -0.0078,-0.00686 -0.0024,-0.00217 -0.0047,-0.00444 -0.0067,-0.00703 -0.0024,-0.00275 -0.0048,-0.00547 -0.0071,-0.00836 -0.0028,-0.00378 -0.0054,-0.00771 -0.0079,-0.011708 -0.0024,-0.00369 -0.0046,-0.00748 -0.0069,-0.011277 -0.0027,-0.00467 -0.0054,-0.00933 -0.0085,-0.013795 -0.003,-0.00466 -0.006,-0.00937 -0.0088,-0.014176 -0.0022,-0.00405 -0.0045,-0.00803 -0.0062,-0.012346 -0.0016,-0.00389 -0.0029,-0.00788 -0.0039,-0.011959 -2.91e-4,-0.00114 -6.62e-4,-0.00225 -8.73e-4,-0.00341 -5.82e-4,-0.00331 -5.82e-4,-0.00672 -0.0013,-0.010009 -0.001,-0.00583 -0.0018,-0.0117 -0.0031,-0.01747 -0.001,-0.00387 -0.0024,-0.0076 -0.0036,-0.011438 -0.0012,-0.00408 -0.002,-0.00822 -0.0033,-0.012269 -0.0013,-0.00484 -0.0018,-0.00986 -0.0026,-0.014798 -3.17e-4,-0.00349 -4.49e-4,-0.00698 4.4e-5,-0.010467 4.77e-4,-0.00259 0.0016,-0.005 0.0023,-0.00756 6.88e-4,-0.00262 0.0017,-0.00514 0.0022,-0.0078 0.0012,-0.00374 0.0028,-0.00737 0.003,-0.011369 3.7e-4,-0.00326 4.23e-4,-0.00652 3.7e-4,-0.0098 -3e-6,-0.00376 -3e-6,-0.00751 1.9e-5,-0.011274 4.7e-5,-0.00688 1.18e-4,-0.013772 3.97e-4,-0.020653 2.91e-4,-0.00648 7.41e-4,-0.012965 6.35e-4,-0.019458 0,-0.014616 -0.02067,-0.014616 -0.02067,0 z" />
      <path
         style="fill:#000000;stroke:#030000;stroke-width:0.1;stroke-miterlimit:4;stroke-dasharray:none"
         id="path898"
         d="m 10.636846,4.3706195 c 0.0056,-0.00235 0.01092,-0.00524 0.01623,-0.00817 0.006,-0.00335 0.01173,-0.0072 0.01744,-0.011041 0.0048,-0.00339 0.0093,-0.00734 0.01352,-0.011411 0.004,-0.00351 0.0074,-0.00767 0.01085,-0.011679 0.0029,-0.00358 0.006,-0.00696 0.0087,-0.010694 0.0024,-0.004 0.0052,-0.00771 0.0077,-0.011671 0.002,-0.0036 0.0046,-0.00673 0.0073,-0.0098 0.0031,-0.00348 0.0061,-0.00713 0.0089,-0.010872 0.0024,-0.00335 0.0049,-0.00664 0.0074,-0.00994 0.003,-0.00396 0.0048,-0.00858 0.0068,-0.013113 0.002,-0.00512 0.0037,-0.010403 0.0053,-0.015658 0.0012,-0.0046 0.0031,-0.00894 0.0048,-0.013324 0.0018,-0.00476 0.0039,-0.00942 0.0056,-0.0142 0.0015,-0.00522 0.0028,-0.010491 0.0038,-0.015835 6.62e-4,-0.00407 8.47e-4,-0.0082 9e-4,-0.012316 -1.15e-4,-0.0042 3.44e-4,-0.00837 6.08e-4,-0.012557 2.35e-4,-0.00488 7.94e-4,-0.00973 0.0011,-0.0146 2.58e-4,-0.00353 1.3e-4,-0.00707 5.56e-4,-0.010594 5.29e-4,-0.00438 6.35e-4,-0.00879 7.41e-4,-0.013197 -8.4e-5,-0.0035 3.96e-4,-0.00696 6.61e-4,-0.010443 3.7e-4,-0.00479 -8e-5,-0.00959 -3.44e-4,-0.014375 -1.76e-4,-0.00321 -2.25e-4,-0.00643 -2.5e-4,-0.00965 -1.7e-5,-0.00333 -1.2e-5,-0.00665 -1.1e-5,-0.00998 1.39e-4,-0.00433 -3.5e-5,-0.00852 -6.61e-4,-0.012816 -0.0012,-0.0062 -0.0037,-0.012065 -0.0061,-0.017902 -0.003,-0.0066 -0.0064,-0.01297 -0.0097,-0.01942 -0.0015,-0.00351 -0.004,-0.00668 -0.005,-0.010395 -7.94e-4,-0.00418 -0.0019,-0.00829 -0.0031,-0.012374 -0.0023,-0.00805 -0.0063,-0.015428 -0.01098,-0.022331 -0.0032,-0.00492 -0.0073,-0.00913 -0.01171,-0.013028 -0.0034,-0.00257 -0.0061,-0.00584 -0.0087,-0.00915 -0.0025,-0.00339 -0.0055,-0.00643 -0.0078,-0.00999 -0.0021,-0.00288 -0.0042,-0.00568 -0.0062,-0.0086 -0.0028,-0.0038 -0.0059,-0.00736 -0.009,-0.010906 -0.003,-0.00372 -0.0066,-0.00691 -0.01031,-0.00991 -0.004,-0.00305 -0.008,-0.00595 -0.01218,-0.00877 -0.0051,-0.00362 -0.01055,-0.00649 -0.01602,-0.00941 -0.0059,-0.00307 -0.01166,-0.00648 -0.01762,-0.00948 -0.0041,-0.0023 -0.0084,-0.00436 -0.01258,-0.00645 -0.0063,-0.00332 -0.01284,-0.00632 -0.01928,-0.00945 -0.0072,-0.00344 -0.01432,-0.00688 -0.02152,-0.010239 -0.0047,-0.00209 -0.0095,-0.00409 -0.01438,-0.00568 -0.005,-0.00183 -0.01013,-0.00315 -0.01529,-0.00439 -0.0055,-0.00116 -0.01102,-0.00257 -0.01659,-0.00358 -0.0079,-0.00122 -0.01581,-0.00148 -0.02375,-0.00164 -0.0055,-9.74e-5 -0.01091,-9e-5 -0.01637,-8.21e-5 -0.0074,1.27e-5 -0.01479,1.56e-5 -0.0222,1.83e-5 -0.0094,1.402e-4 -0.01884,0.00138 -0.02815,0.0029 -0.0087,0.00135 -0.01729,0.00292 -0.02594,0.00435 -0.0042,8.996e-4 -0.0085,0.00156 -0.01271,0.00257 -0.0042,0.00103 -0.0082,0.00276 -0.01209,0.0046 -0.0041,0.00193 -0.008,0.00415 -0.01178,0.00654 -0.0034,0.00201 -0.0069,0.00373 -0.01038,0.00547 -5.83e-4,3.439e-4 -0.0012,6.879e-4 -0.0018,0.00103 -0.01252,0.00754 -0.0019,0.025249 0.01066,0.017708 v 0 c 1.16e-4,-8.28e-5 2.33e-4,-1.656e-4 3.44e-4,-2.482e-4 0.0041,-0.00206 0.0082,-0.00409 0.01217,-0.00648 0.0031,-0.00196 0.0062,-0.00373 0.0095,-0.0053 0.0027,-0.00124 0.0053,-0.00251 0.0082,-0.00322 0.0037,-9.26e-4 0.0075,-0.00143 0.01125,-0.00228 0.0086,-0.00143 0.01726,-0.003 0.02591,-0.00435 0.0082,-0.00138 0.01648,-0.00246 0.0248,-0.00262 0.0074,-2.6e-6 0.01481,-5.5e-6 0.02222,-1.82e-5 0.0053,-7.7e-6 0.0106,-1.59e-5 0.0159,7.75e-5 0.0068,1.415e-4 0.01371,3.439e-4 0.0205,0.00132 0.0052,9.26e-4 0.01027,0.0023 0.01543,0.00333 0.0047,0.00111 0.0093,0.0023 0.0138,0.00398 0.0041,0.0013 0.008,0.00302 0.01197,0.00474 0.0071,0.00332 0.01417,0.00671 0.02124,0.010104 0.0064,0.00311 0.01286,0.00609 0.01917,0.00939 0.0042,0.00206 0.0084,0.0041 0.01244,0.00638 0.0058,0.00291 0.01139,0.00627 0.01717,0.00924 0.0048,0.00257 0.0097,0.00504 0.0141,0.00825 0.0037,0.00251 0.0073,0.00509 0.01089,0.00781 0.0028,0.00222 0.0055,0.00464 0.0078,0.00746 0.0026,0.0029 0.0051,0.00585 0.0075,0.00892 0.002,0.00284 0.004,0.00559 0.0061,0.00836 0.0027,0.00398 0.0059,0.00763 0.0088,0.011398 0.0034,0.00426 0.0069,0.00843 0.01119,0.011782 0.0031,0.00274 0.0061,0.00573 0.0084,0.00923 0.0035,0.00509 0.0065,0.010586 0.0082,0.01656 0.0013,0.00418 0.0022,0.00841 0.0032,0.012655 0.0016,0.00474 0.004,0.0091 0.0063,0.013523 0.003,0.00595 0.0062,0.011835 0.009,0.017894 0.0018,0.00441 0.0037,0.00881 0.0049,0.013441 6.35e-4,0.00312 3.7e-4,0.00629 3.96e-4,0.00946 -1e-6,0.00338 -6e-6,0.00677 1.2e-5,0.010149 2.8e-5,0.00354 8.5e-5,0.00708 2.91e-4,0.010615 2.12e-4,0.00387 6.08e-4,0.00776 3.7e-4,0.011639 -2.91e-4,0.00385 -7.93e-4,0.00769 -7.14e-4,0.011557 -8.9e-5,0.00378 -1.6e-4,0.00756 -6.09e-4,0.011316 -4.23e-4,0.00385 -4.49e-4,0.00771 -6.35e-4,0.011578 -3.17e-4,0.00491 -9.26e-4,0.0098 -0.0011,0.014719 -2.65e-4,0.0045 -7.68e-4,0.009 -6.35e-4,0.013512 -4.4e-5,0.00303 -1.45e-4,0.00607 -6.09e-4,0.00907 -7.14e-4,0.00418 -0.0018,0.00828 -0.0029,0.01239 -0.0016,0.00455 -0.0037,0.00892 -0.0053,0.013454 -0.002,0.00489 -0.0041,0.00973 -0.0054,0.014856 -0.0015,0.00461 -0.0029,0.00924 -0.0046,0.013756 -0.0013,0.00298 -0.0024,0.00609 -0.0042,0.00876 -0.0025,0.00333 -0.0051,0.00665 -0.0075,0.01003 -0.0025,0.00334 -0.0051,0.00656 -0.0079,0.00965 -0.0034,0.00393 -0.0067,0.00798 -0.0093,0.012549 -0.0022,0.00356 -0.0048,0.00682 -0.0069,0.010438 -0.0023,0.00323 -0.0051,0.00606 -0.0075,0.00919 -0.0031,0.00356 -0.006,0.00729 -0.0096,0.010393 -0.0033,0.00327 -0.0069,0.00638 -0.0107,0.00913 -0.0052,0.00351 -0.01042,0.00704 -0.01591,0.010105 -0.0047,0.00259 -0.0094,0.00519 -0.01436,0.00726 -0.01343,0.00576 -0.0053,0.024757 0.0081,0.019 z" />
      <path
         style="fill:#000000;stroke:#030000;stroke-width:0.1;stroke-miterlimit:4;stroke-dasharray:none"
         id="path900"
         d="m 10.342358,3.8527212 c -0.0025,-0.00403 -0.0054,-0.00775 -0.0083,-0.01156 -0.0026,-0.00353 -0.0052,-0.00716 -0.0078,-0.010734 -0.0025,-0.00328 -0.0051,-0.00655 -0.0079,-0.00963 -0.0027,-0.00283 -0.0058,-0.00503 -0.0091,-0.00711 -0.0051,-0.00311 -0.0099,-0.0065 -0.0149,-0.00977 -0.0039,-0.00269 -0.0075,-0.00584 -0.01115,-0.00886 -0.0026,-0.00238 -0.0051,-0.00476 -0.0076,-0.00731 -0.0031,-0.00356 -0.0068,-0.00648 -0.01025,-0.00967 -0.0026,-0.00225 -0.0053,-0.0044 -0.0081,-0.00634 -0.0029,-0.00217 -0.0058,-0.00449 -0.0088,-0.00657 -0.0023,-0.00151 -0.004,-0.00373 -0.0058,-0.00571 -0.003,-0.0031 -0.0057,-0.00654 -0.0085,-0.00982 -0.0041,-0.0044 -0.0084,-0.00862 -0.01231,-0.01316 -0.0029,-0.00305 -0.0057,-0.00619 -0.0081,-0.00966 -0.0024,-0.00362 -0.0052,-0.00694 -0.0081,-0.010237 -0.0029,-0.00307 -0.006,-0.00592 -0.0092,-0.00862 -0.0035,-0.00315 -0.0072,-0.00603 -0.01111,-0.00873 -0.003,-0.00222 -0.0059,-0.00448 -0.0089,-0.00662 -0.0037,-0.00251 -0.0074,-0.00514 -0.01084,-0.00801 -0.0058,-0.00479 -0.01195,-0.00921 -0.01795,-0.01379 -0.0047,-0.00351 -0.0091,-0.00731 -0.01337,-0.011353 -0.0037,-0.00375 -0.0072,-0.00777 -0.01062,-0.011769 -0.0033,-0.00374 -0.0064,-0.00768 -0.0094,-0.011692 -0.0025,-0.00332 -0.005,-0.00664 -0.0076,-0.00988 -0.0039,-0.00424 -0.0081,-0.00814 -0.01219,-0.012113 -0.0029,-0.00262 -0.0057,-0.00539 -0.0086,-0.00804 -0.0024,-0.00251 -0.0055,-0.0044 -0.0079,-0.00687 -0.0032,-0.00311 -0.0064,-0.00627 -0.0095,-0.00953 -0.0041,-0.00414 -0.0077,-0.00869 -0.01157,-0.01301 -0.0028,-0.00312 -0.0058,-0.006 -0.0087,-0.00894 -0.0038,-0.00389 -0.0076,-0.00769 -0.01142,-0.011515 -0.003,-0.00314 -0.006,-0.00625 -0.0087,-0.00958 -0.0027,-0.00384 -0.0059,-0.00731 -0.009,-0.010814 -0.0049,-0.00543 -0.01006,-0.010586 -0.01523,-0.01574 -0.0035,-0.00323 -0.00677,-0.00668 -0.010012,-0.010176 -0.00613,-0.00606 -0.01207,-0.012301 -0.018225,-0.018336 -0.00381,-0.00358 -0.00725,-0.00752 -0.011046,-0.011099 -0.00496,-0.00453 -0.010142,-0.00882 -0.015282,-0.013137 -0.00434,-0.00347 -0.00859,-0.00707 -0.01265,-0.010858 -0.00257,-0.00251 -0.0054,-0.00475 -0.00787,-0.00735 -0.00285,-0.00288 -0.0054,-0.00604 -0.00814,-0.00903 -0.00421,-0.00428 -0.00852,-0.00845 -0.012795,-0.012658 -0.00406,-0.00397 -0.00815,-0.00793 -0.012314,-0.011795 -0.00241,-0.00249 -0.00506,-0.00476 -0.00776,-0.00694 -7.408e-4,-7.144e-4 -2.442e-4,-2.513e-4 -0.00151,-0.0013 -0.011308,-0.00926 -0.024405,0.00673 -0.013097,0.015991 v 0 c 8.732e-4,6.879e-4 2.911e-4,2.119e-4 0.00172,0.00146 0.00235,0.00183 0.00454,0.00386 0.00663,0.00597 0.00402,0.00369 0.00791,0.00753 0.011827,0.011329 0.00405,0.00399 0.00813,0.00795 0.012136,0.011978 0.00291,0.00309 0.00551,0.00647 0.00854,0.00945 0.00277,0.00279 0.00574,0.00537 0.0086,0.00806 0.00433,0.00399 0.00878,0.00786 0.013393,0.011515 0.00485,0.00408 0.00974,0.00812 0.014436,0.012383 0.00371,0.00346 0.007,0.00734 0.010726,0.010792 0.00592,0.0058 0.011621,0.011814 0.017529,0.017624 0.00343,0.0037 0.0069,0.00735 0.010594,0.010779 0.00488,0.00485 0.00975,0.0097 0.014359,0.014814 0.003,0.00335 0.006,0.00666 0.0086,0.010321 0.0032,0.0038 0.0066,0.00738 0.01001,0.010962 0.0038,0.00384 0.0077,0.00767 0.01149,0.011578 0.0027,0.00266 0.0054,0.00526 0.0079,0.0081 0.004,0.00442 0.0077,0.00912 0.01189,0.013356 0.0034,0.00355 0.0068,0.00697 0.01033,0.010361 0.0027,0.00246 0.0056,0.00462 0.0082,0.00711 0.0028,0.00251 0.0054,0.00517 0.0082,0.00765 0.0035,0.00339 0.0071,0.00673 0.01046,0.010223 0.0025,0.00303 0.0048,0.00616 0.0072,0.00927 0.0033,0.00441 0.0067,0.00873 0.01034,0.012846 0.0039,0.00451 0.0078,0.00903 0.01201,0.013227 0.0048,0.00454 0.0098,0.00885 0.01508,0.012811 0.0058,0.00442 0.01171,0.0087 0.01736,0.013327 0.0039,0.00316 0.0079,0.00613 0.01204,0.00892 0.0031,0.00214 0.006,0.00447 0.009,0.00669 0.0034,0.00235 0.0066,0.00488 0.0097,0.00763 0.0024,0.00198 0.0046,0.00404 0.0068,0.00623 0.0024,0.00281 0.0048,0.00562 0.0069,0.00871 0.0029,0.00398 0.0059,0.00779 0.0094,0.011295 0.0039,0.00453 0.0082,0.00879 0.0123,0.013142 0.003,0.0035 0.0059,0.00718 0.0091,0.010483 0.0029,0.00304 0.0056,0.0063 0.0092,0.00855 0.0031,0.00209 0.0058,0.00458 0.0089,0.00667 0.002,0.00127 0.0038,0.00294 0.0057,0.00442 0.0031,0.00287 0.0065,0.00552 0.0093,0.00874 0.003,0.0031 0.0061,0.00607 0.0093,0.00893 0.0042,0.00349 0.0084,0.00711 0.01293,0.010168 0.005,0.00332 0.01,0.00676 0.01514,0.00993 0.0017,0.00108 0.0034,0.00217 0.0049,0.00356 0.0023,0.00254 0.0044,0.00523 0.0065,0.00792 0.0026,0.00362 0.0052,0.0073 0.0079,0.010888 0.0026,0.00353 0.0054,0.00697 0.0077,0.010721 0.0081,0.012163 0.02531,6.879e-4 0.0172,-0.011467 z" />
      <path
         style="fill:#000000;stroke:#030000;stroke-width:0.1;stroke-miterlimit:4;stroke-dasharray:none"
         id="path902"
         d="m 9.9074252,3.353363 c 3.969e-4,-0.00488 0.00119,-0.0097 0.0022,-0.014483 0.00196,-0.00653 0.00276,-0.013272 0.00362,-0.020005 7.673e-4,-0.00544 0.00114,-0.010909 0.00132,-0.016394 1.693e-4,-0.00552 1.188e-4,-0.011068 -6.615e-4,-0.016552 -5.291e-4,-0.00378 -0.00106,-0.00565 -0.00193,-0.00931 -0.00196,-0.00684 -0.00506,-0.013266 -0.00769,-0.019857 -0.0014,-0.00364 -0.00257,-0.00737 -0.00324,-0.01121 -0.00106,-0.00551 -0.00209,-0.01102 -0.00325,-0.016505 -0.00146,-0.00663 -0.00382,-0.013002 -0.00631,-0.019301 -0.00313,-0.00842 -0.00749,-0.016293 -0.01162,-0.024244 -0.00304,-0.00572 -0.00628,-0.011332 -0.00916,-0.01714 -0.00249,-0.0053 -0.00534,-0.010417 -0.00781,-0.015729 -0.00204,-0.00488 -0.0045,-0.00954 -0.00706,-0.01415 -0.00183,-0.00332 -0.00363,-0.00663 -0.00581,-0.00973 -0.00196,-0.00311 -0.00455,-0.0057 -0.00703,-0.00838 -0.003,-0.00341 -0.00607,-0.00675 -0.00913,-0.010115 -0.00337,-0.00357 -0.00692,-0.00697 -0.010681,-0.010131 -0.00573,-0.00559 -0.011904,-0.010668 -0.01818,-0.015629 -0.00865,-0.00665 -0.017232,-0.013446 -0.026516,-0.019196 -0.0062,-0.00379 -0.013094,-0.00614 -0.019709,-0.00906 -0.011499,-0.00515 -0.023029,-0.010229 -0.034695,-0.014986 -0.00148,-5.821e-4 -0.00299,-0.00114 -0.00448,-0.00172 -0.00246,-9.789e-4 -0.00382,-0.00161 -0.00634,-0.00246 -0.00304,-0.00101 -0.00618,-0.00169 -0.00929,-0.00241 -0.00528,-0.00135 -0.010612,-0.00254 -0.016002,-0.00337 -0.00897,-0.00111 -0.017949,-0.00209 -0.02691,-0.00324 -0.012187,-0.00159 -0.024408,-0.00275 -0.036676,-0.00342 -0.00666,-3.44e-4 -0.013332,-5.027e-4 -0.020003,-5.292e-4 -0.00588,2.94e-5 -0.011753,5.557e-4 -0.017587,0.00127 -0.00692,0.00119 -0.013843,0.00243 -0.020706,0.00393 -0.00487,0.00108 -0.00973,0.0023 -0.014399,0.00408 -0.00569,0.00249 -0.011271,0.00516 -0.016529,0.00849 -0.00425,0.00251 -0.00797,0.00575 -0.011835,0.00879 -0.00185,0.00148 -9.789e-4,8.202e-4 -0.00254,0.00193 -0.011798,0.00863 3.969e-4,0.025313 0.012203,0.016685 v 0 c 0.0022,-0.00161 0.00116,-8.202e-4 0.0031,-0.00238 0.00334,-0.00262 0.00652,-0.00546 0.010192,-0.00762 0.00409,-0.00266 0.00852,-0.00461 0.012938,-0.00666 0.0036,-0.00148 0.00749,-0.00217 0.01125,-0.00313 0.00624,-0.00138 0.012541,-0.00249 0.018825,-0.00361 0.00496,-6.085e-4 0.00996,-0.00106 0.014965,-0.00111 0.00633,3.49e-5 0.012658,1.902e-4 0.018981,5.027e-4 0.011761,6.35e-4 0.023477,0.00177 0.03516,0.00328 0.00884,0.00114 0.017693,0.00212 0.026537,0.00319 0.00485,6.879e-4 0.0096,0.00191 0.014354,0.00306 0.00228,5.292e-4 0.00463,9.525e-4 0.00686,0.00169 0.00209,6.879e-4 0.00394,0.00151 0.00602,0.00233 0.00138,5.291e-4 0.00274,0.00106 0.00411,0.00159 0.011491,0.00468 0.022839,0.0097 0.034164,0.014761 0.00577,0.00254 0.011763,0.0046 0.01723,0.00777 0.00864,0.00524 0.01646,0.01174 0.024519,0.017801 0.00616,0.00486 0.012155,0.00989 0.017812,0.015333 0.00307,0.00246 0.00583,0.00532 0.00858,0.00813 0.0031,0.0034 0.00621,0.00679 0.00924,0.010242 0.00188,0.00204 0.0039,0.00393 0.00534,0.00632 0.0018,0.00246 0.00309,0.0052 0.0046,0.00782 0.00233,0.00416 0.00455,0.00838 0.00637,0.012795 0.00254,0.00547 0.00546,0.010763 0.00805,0.016222 0.00295,0.00591 0.00619,0.011655 0.00933,0.017465 0.00381,0.00733 0.00786,0.01456 0.010742,0.022323 0.00206,0.00522 0.00406,0.010501 0.00531,0.015994 0.00114,0.00533 0.00212,0.010697 0.00316,0.016044 0.00101,0.00514 0.00243,0.010179 0.00437,0.015047 0.00228,0.00566 0.00488,0.011205 0.00678,0.017013 5.027e-4,0.00209 0.00116,0.00452 0.00148,0.00666 6.879e-4,0.00456 7.143e-4,0.00915 5.556e-4,0.013748 -1.381e-4,0.00482 -4.763e-4,0.00962 -0.00116,0.014396 -7.937e-4,0.0062 -0.00151,0.012393 -0.00335,0.018399 -0.00108,0.00521 -0.00198,0.010459 -0.00241,0.015772 -0.00206,0.01447 0.018396,0.017394 0.020463,0.00292 z" />
      <path
         style="fill:#000000;stroke:#030000;stroke-width:0.1;stroke-miterlimit:4;stroke-dasharray:none"
         id="path904"
         d="m 9.4942357,3.0169649 c -0.00702,-0.00732 -0.014587,-0.014137 -0.022146,-0.0209 -0.011031,-0.00964 -0.02227,-0.01905 -0.033692,-0.028226 -0.00697,-0.00556 -0.014004,-0.011025 -0.021183,-0.016306 -0.00609,-0.00463 -0.011761,-0.00976 -0.017592,-0.014692 -0.00563,-0.0045 -0.010866,-0.00941 -0.015923,-0.014536 -0.00732,-0.00704 -0.015176,-0.013481 -0.022812,-0.020164 -0.00667,-0.00589 -0.013348,-0.011769 -0.020063,-0.017605 -0.00355,-0.00328 -0.00747,-0.00616 -0.010901,-0.00956 -0.00389,-0.00351 -0.00773,-0.00709 -0.011446,-0.01079 -0.00505,-0.00489 -0.00975,-0.010102 -0.014621,-0.015155 -0.00423,-0.004 -0.00808,-0.00837 -0.012049,-0.012621 -0.0061,-0.00704 -0.013007,-0.013287 -0.019682,-0.019762 -0.00574,-0.00527 -0.011372,-0.010665 -0.016777,-0.01628 -0.00565,-0.00631 -0.011049,-0.012827 -0.016798,-0.019053 -0.00476,-0.00526 -0.00924,-0.010747 -0.013586,-0.016351 -0.00399,-0.00552 -0.00855,-0.010581 -0.012912,-0.015804 -0.00449,-0.00526 -0.0092,-0.010324 -0.013597,-0.015655 -0.0042,-0.00493 -0.00856,-0.00971 -0.013004,-0.01442 -0.0048,-0.00515 -0.010205,-0.00966 -0.015621,-0.014142 -0.004,-0.00325 -0.00806,-0.00642 -0.012152,-0.00956 -0.00382,-0.00294 -0.00754,-0.00601 -0.011292,-0.00903 -0.00349,-0.00277 -0.00703,-0.00547 -0.010406,-0.00837 -0.00304,-0.00243 -0.00602,-0.00497 -0.00902,-0.00746 -5.292e-4,-4.497e-4 -0.00108,-9.26e-4 -0.00161,-0.00138 -0.011099,-0.00951 -0.024548,0.00619 -0.013451,0.015695 v 0 c 6.35e-4,5.292e-4 0.00124,0.00106 0.00188,0.00161 0.00292,0.00241 0.0058,0.00487 0.00876,0.00723 0.00355,0.00304 0.00724,0.00589 0.010909,0.00878 0.00388,0.00311 0.00772,0.00628 0.01166,0.00931 0.00389,0.00298 0.00776,0.00598 0.011554,0.00908 0.00476,0.00394 0.00953,0.00787 0.013756,0.012393 0.00414,0.00439 0.0082,0.00883 0.01212,0.01342 0.00443,0.00535 0.00913,0.010472 0.013668,0.015737 0.0042,0.00502 0.00859,0.0099 0.012435,0.015214 0.00471,0.00607 0.00958,0.012009 0.014737,0.017708 0.00585,0.00633 0.0113,0.012991 0.017095,0.019367 0.00557,0.00578 0.011361,0.011351 0.017277,0.016783 0.00643,0.00623 0.013094,0.01225 0.018968,0.019034 0.00405,0.00433 0.00797,0.00879 0.012282,0.012867 0.00498,0.00514 0.00975,0.01047 0.014901,0.015441 0.00377,0.00375 0.00764,0.0074 0.011605,0.010943 0.00377,0.00363 0.00786,0.00689 0.011769,0.010364 0.0067,0.00582 0.013359,0.011687 0.020013,0.017563 0.00726,0.00635 0.014719,0.012483 0.021714,0.019132 0.00549,0.00556 0.011181,0.010901 0.017285,0.015796 0.0062,0.00523 0.012213,0.010681 0.018698,0.015566 0.00695,0.0051 0.013742,0.010401 0.020484,0.015769 0.011144,0.00895 0.022101,0.018127 0.032865,0.027525 0.00728,0.00649 0.014555,0.013047 0.021299,0.020098 0.010335,0.010335 0.02495,-0.00428 0.014616,-0.014616 z" />
      <circle
         id="path906"
         style="fill:#000000;stroke:#030000;stroke-width:0.264583"
         cx="9.1095209"
         cy="2.6696045"
         r="6.8833004e-05" />
      <path
         style="fill:#000000;stroke:#030000;stroke-width:0.1;stroke-miterlimit:4;stroke-dasharray:none"
         id="path908"
         d="m 9.1131794,2.6585976 c -4.498e-4,-5.821e-4 -9.261e-4,-0.00116 -0.00138,-0.00172 -0.00925,-0.011315 -0.025254,0.00177 -0.016002,0.013086 v 0 c 1.892e-4,2.196e-4 3.704e-4,4.498e-4 5.557e-4,6.615e-4 0.0085,0.011893 0.025315,-1.21e-4 0.01682,-0.012015 z" />
      <circle
         id="path910"
         style="fill:#000000;stroke:#030000;stroke-width:0.264583"
         cx="9.0991859"
         cy="2.6582355"
         r="6.8833004e-05" />
    </g>
    <path
       style="fill:#f05033;fill-opacity:1;stroke:#030000;stroke-width:0.011811;stroke-miterlimit:4;stroke-dasharray:none"
       d="m 36.080437,22.907489 c -0.07833,-0.03642 -0.469257,-0.394964 -1.046999,-0.960251 -0.507099,-0.496168 -2.077306,-2.030599 -3.489348,-3.409847 -2.094418,-2.045776 -2.582263,-2.537653 -2.648313,-2.670199 -0.131417,-0.263718 -0.102279,-0.513529 0.08923,-0.764981 0.05462,-0.07172 1.110711,-1.11591 2.346863,-2.32042 l 2.247548,-2.190017 0.422387,0.41556 c 0.232313,0.228558 0.572068,0.560371 0.755011,0.737361 l 0.332623,0.321802 -0.03146,0.113952 c -0.01731,0.06267 -0.02552,0.22725 -0.01825,0.365726 0.02124,0.404576 0.244872,0.814269 0.573183,1.050044 l 0.139407,0.100115 v 1.961346 c 0,1.840079 -0.0034,1.962489 -0.05469,1.97982 -0.07749,0.02617 -0.229188,0.170115 -0.378912,0.359529 -0.09039,0.114352 -0.152945,0.24269 -0.211249,0.433397 -0.07816,0.255642 -0.08087,0.285649 -0.04815,0.531506 0.04544,0.341324 0.153155,0.570662 0.374169,0.796615 0.36381,0.37194 0.78089,0.493207 1.318825,0.383451 0.422351,-0.08617 0.700688,-0.285924 0.89703,-0.643759 0.244485,-0.445579 0.255511,-0.815048 0.03793,-1.270954 -0.09846,-0.20631 -0.366199,-0.52543 -0.467913,-0.557713 -0.05929,-0.01882 -0.06079,-0.06345 -0.06079,-1.805935 v -1.78664 l 0.579175,0.577809 0.579176,0.577808 -0.02251,0.125 c -0.09143,0.507703 0.101484,1.036637 0.489163,1.341216 0.367707,0.288887 0.784814,0.387305 1.203122,0.283883 0.621156,-0.153575 1.005491,-0.581877 1.073904,-1.196758 0.03401,-0.305663 -0.0071,-0.508591 -0.162546,-0.803086 C 40.76658,14.733848 40.568561,14.549362 40.28357,14.41038 40.058416,14.300578 40.035057,14.295879 39.68982,14.290933 l -0.359375,-0.0051 -0.767749,-0.745336 -0.767748,-0.745335 0.03005,-0.119888 c 0.0425,-0.169551 -0.01971,-0.566917 -0.122849,-0.784749 -0.101026,-0.21337 -0.37781,-0.501852 -0.591195,-0.616182 -0.24552,-0.131547 -0.52499,-0.192166 -0.786678,-0.170636 l -0.224922,0.0185 -0.768256,-0.738678 c -0.42254,-0.4062737 -0.764295,-0.7482093 -0.759453,-0.7598574 0.0048,-0.011648 0.304816,-0.3107457 0.666609,-0.6646613 0.719585,-0.7039156 0.86869,-0.8065104 1.166395,-0.8025605 0.302513,0.00401 0.288189,-0.00854 2.885469,2.5292502 1.345619,1.314799 2.927598,2.860418 3.515508,3.434708 1.124068,1.098026 1.150571,1.130167 1.186343,1.438687 0.01391,0.119969 6.3e-5,0.173119 -0.08813,0.338544 -0.09187,0.172284 -0.528267,0.608965 -3.575827,3.578125 -3.079785,3.000555 -3.488535,3.388077 -3.625,3.436735 -0.199916,0.07128 -0.463105,0.06918 -0.622559,-0.005 z"
       id="path936"
       transform="scale(0.26458333)" />
  </g>
</svg>
